<svg xmlns="http://www.w3.org/2000/svg" xmlns:xlink="http://www.w3.org/1999/xlink" width="1080" zoomAndPan="magnify" viewBox="0 0 810 809.999993" height="1080" preserveAspectRatio="xMidYMid meet" version="1.0"><defs><clipPath id="6a2b90e9d5"><path d="M 22.039062 22.039062 L 787.789062 22.039062 L 787.789062 770 L 22.039062 770 Z M 22.039062 22.039062 " clip-rule="nonzero"/></clipPath></defs><g clip-path="url(#6a2b90e9d5)"><path fill="#ffffff" d="M 404.996094 22.039062 C 193.414062 22.039062 22.039062 193.414062 22.039062 404.996094 C 22.039062 574.457031 131.664062 717.585938 283.886719 768.328125 C 303.035156 771.679688 310.214844 760.191406 310.214844 750.136719 C 310.214844 741.042969 309.738281 710.886719 309.738281 678.8125 C 213.519531 696.523438 188.628906 655.355469 180.96875 633.816406 C 176.660156 622.804688 157.992188 588.816406 141.714844 579.722656 C 128.3125 572.542969 109.164062 554.828125 141.234375 554.351562 C 171.394531 553.871094 192.933594 582.117188 200.117188 593.605469 C 234.582031 651.527344 289.632812 635.25 311.652344 625.199219 C 315.003906 600.304688 325.054688 583.550781 336.066406 573.976562 C 250.859375 564.402344 161.820312 531.375 161.820312 384.894531 C 161.820312 343.246094 176.660156 308.78125 201.074219 281.972656 C 197.242188 272.398438 183.839844 233.144531 204.902344 180.488281 C 204.902344 180.488281 236.976562 170.4375 310.214844 219.742188 C 340.851562 211.125 373.402344 206.816406 405.957031 206.816406 C 438.507812 206.816406 471.058594 211.125 501.695312 219.742188 C 574.933594 169.957031 607.007812 180.488281 607.007812 180.488281 C 628.070312 233.144531 614.667969 272.398438 610.835938 281.972656 C 635.25 308.78125 650.089844 342.765625 650.089844 384.894531 C 650.089844 531.851562 560.574219 564.402344 475.367188 573.976562 C 489.25 585.945312 501.214844 608.921875 501.214844 644.824219 C 501.214844 696.046875 500.738281 737.214844 500.738281 750.136719 C 500.738281 760.191406 507.917969 772.15625 527.066406 768.328125 C 678.332031 717.585938 787.953125 573.976562 787.953125 404.996094 C 787.953125 193.414062 616.582031 22.039062 404.996094 22.039062 Z M 404.996094 22.039062 " fill-opacity="1" fill-rule="evenodd"/></g></svg>