<svg xmlns="http://www.w3.org/2000/svg" xmlns:xlink="http://www.w3.org/1999/xlink" width="1080" zoomAndPan="magnify" viewBox="0 0 810 809.999993" height="1080" preserveAspectRatio="xMidYMid meet" version="1.0"><defs><clipPath id="e72d87e7e7"><path d="M 26.035156 26.035156 L 784 26.035156 L 784 784 L 26.035156 784 Z M 26.035156 26.035156 " clip-rule="nonzero"/></clipPath></defs><g clip-path="url(#e72d87e7e7)"><path fill="#ffffff" d="M 783.960938 668.714844 C 783.960938 732.320312 732.394531 783.882812 668.785156 783.882812 L 141.230469 783.882812 C 77.621094 783.882812 26.066406 732.320312 26.066406 668.714844 L 26.066406 141.15625 C 26.066406 77.550781 77.625 25.988281 141.230469 25.988281 L 668.789062 25.988281 C 732.398438 25.988281 783.960938 77.550781 783.960938 141.15625 Z M 783.960938 668.714844 " fill-opacity="1" fill-rule="nonzero"/></g><path fill="#000000" d="M 325.75 296.386719 C 325.75 298.238281 325.660156 300.089844 325.480469 301.933594 C 325.296875 303.78125 325.023438 305.613281 324.664062 307.429688 C 324.300781 309.25 323.851562 311.046875 323.3125 312.820312 C 322.773438 314.59375 322.152344 316.339844 321.441406 318.050781 C 320.730469 319.765625 319.941406 321.4375 319.066406 323.074219 C 318.191406 324.710938 317.238281 326.296875 316.210938 327.839844 C 315.179688 329.382812 314.078125 330.871094 312.898438 332.300781 C 311.722656 333.734375 310.480469 335.109375 309.167969 336.417969 C 307.859375 337.730469 306.484375 338.972656 305.050781 340.152344 C 303.617188 341.328125 302.132812 342.429688 300.589844 343.460938 C 299.046875 344.492188 297.457031 345.441406 295.824219 346.316406 C 294.1875 347.191406 292.515625 347.984375 290.800781 348.691406 C 289.085938 349.402344 287.34375 350.027344 285.570312 350.5625 C 283.796875 351.101562 282 351.550781 280.179688 351.914062 C 278.359375 352.277344 276.527344 352.546875 274.683594 352.730469 C 272.839844 352.910156 270.988281 353.003906 269.132812 353.003906 C 267.28125 353.003906 265.429688 352.910156 263.585938 352.730469 C 261.738281 352.546875 259.90625 352.277344 258.089844 351.914062 C 256.269531 351.550781 254.472656 351.101562 252.699219 350.5625 C 250.925781 350.027344 249.179688 349.402344 247.46875 348.691406 C 245.753906 347.984375 244.082031 347.191406 242.445312 346.316406 C 240.808594 345.441406 239.222656 344.492188 237.679688 343.460938 C 236.136719 342.429688 234.648438 341.328125 233.21875 340.152344 C 231.785156 338.972656 230.410156 337.730469 229.101562 336.417969 C 227.789062 335.109375 226.546875 333.734375 225.367188 332.300781 C 224.191406 330.871094 223.089844 329.382812 222.058594 327.839844 C 221.027344 326.296875 220.078125 324.710938 219.203125 323.074219 C 218.328125 321.4375 217.535156 319.765625 216.828125 318.050781 C 216.117188 316.339844 215.492188 314.59375 214.957031 312.820312 C 214.417969 311.046875 213.96875 309.25 213.605469 307.429688 C 213.242188 305.613281 212.972656 303.78125 212.789062 301.933594 C 212.609375 300.089844 212.515625 298.238281 212.515625 296.386719 C 212.515625 294.53125 212.609375 292.679688 212.789062 290.835938 C 212.972656 288.992188 213.242188 287.160156 213.605469 285.339844 C 213.96875 283.519531 214.417969 281.722656 214.957031 279.949219 C 215.492188 278.175781 216.117188 276.433594 216.828125 274.71875 C 217.535156 273.003906 218.328125 271.332031 219.203125 269.695312 C 220.078125 268.0625 221.027344 266.472656 222.058594 264.929688 C 223.089844 263.386719 224.191406 261.902344 225.367188 260.46875 C 226.546875 259.035156 227.789062 257.660156 229.101562 256.351562 C 230.410156 255.039062 231.785156 253.796875 233.21875 252.621094 C 234.648438 251.441406 236.136719 250.339844 237.679688 249.308594 C 239.222656 248.28125 240.808594 247.328125 242.445312 246.453125 C 244.082031 245.578125 245.753906 244.789062 247.46875 244.078125 C 249.179688 243.367188 250.925781 242.746094 252.699219 242.207031 C 254.472656 241.667969 256.269531 241.21875 258.089844 240.855469 C 259.90625 240.496094 261.738281 240.222656 263.585938 240.039062 C 265.429688 239.859375 267.28125 239.769531 269.132812 239.769531 C 270.988281 239.769531 272.839844 239.859375 274.683594 240.039062 C 276.527344 240.222656 278.359375 240.496094 280.179688 240.855469 C 282 241.21875 283.796875 241.667969 285.570312 242.207031 C 287.34375 242.746094 289.085938 243.367188 290.800781 244.078125 C 292.515625 244.789062 294.1875 245.578125 295.824219 246.453125 C 297.457031 247.328125 299.046875 248.28125 300.589844 249.308594 C 302.132812 250.339844 303.617188 251.441406 305.050781 252.621094 C 306.484375 253.796875 307.859375 255.039062 309.167969 256.351562 C 310.480469 257.660156 311.722656 259.035156 312.898438 260.46875 C 314.078125 261.902344 315.179688 263.386719 316.210938 264.929688 C 317.238281 266.472656 318.191406 268.0625 319.066406 269.695312 C 319.941406 271.332031 320.730469 273.003906 321.441406 274.71875 C 322.152344 276.433594 322.773438 278.175781 323.3125 279.949219 C 323.851562 281.722656 324.300781 283.519531 324.664062 285.339844 C 325.023438 287.160156 325.296875 288.992188 325.480469 290.835938 C 325.660156 292.679688 325.75 294.53125 325.75 296.386719 Z M 325.75 296.386719 " fill-opacity="1" fill-rule="nonzero"/><path fill="#000000" d="M 220.328125 394.742188 L 317.59375 394.742188 L 317.59375 707.648438 L 220.328125 707.648438 Z M 220.328125 394.742188 " fill-opacity="1" fill-rule="nonzero"/><path fill="#000000" d="M 378.765625 394.742188 L 471.347656 394.742188 L 471.347656 707.648438 L 378.765625 707.648438 Z M 378.765625 394.742188 " fill-opacity="1" fill-rule="nonzero"/><path fill="#000000" d="M 382.769531 561.339844 L 475.34375 561.339844 L 475.34375 707.648438 L 382.769531 707.648438 Z M 382.769531 561.339844 " fill-opacity="1" fill-rule="nonzero"/><path fill="#000000" d="M 475.34375 561.339844 C 475.34375 561.339844 473.898438 520.757812 484.601562 499.65625 C 484.601562 499.65625 495.304688 473.667969 528.949219 473.511719 C 528.949219 473.511719 568.40625 466.625 579.722656 505.773438 C 579.722656 505.773438 584.003906 527.488281 584.003906 536.667969 C 584.003906 545.847656 584.3125 707.648438 584.3125 707.648438 L 681.269531 707.648438 L 681.269531 528.410156 C 681.269531 528.410156 688.308594 427.164062 627.539062 399.429688 C 627.539062 399.429688 527.621094 354.574219 473.386719 436.953125 C 473.386719 436.953125 461.558594 445.105469 459.925781 422.269531 C 458.292969 399.429688 444.429688 457.34375 444.019531 458.570312 C 443.613281 459.792969 459.925781 573.984375 459.925781 573.984375 Z M 475.34375 561.339844 " fill-opacity="1" fill-rule="nonzero"/></svg>