<svg xmlns="http://www.w3.org/2000/svg" xmlns:xlink="http://www.w3.org/1999/xlink" width="1080" zoomAndPan="magnify" viewBox="0 0 810 809.999993" height="1080" preserveAspectRatio="xMidYMid meet" version="1.0"><defs><clipPath id="d8f95c9a0c"><path d="M 64 62 L 748 62 L 748 754.097656 L 64 754.097656 Z M 64 62 " clip-rule="nonzero"/></clipPath></defs><g clip-path="url(#d8f95c9a0c)"><path fill="#ffffff" d="M 739.703125 708.285156 L 647.722656 610.601562 C 678.9375 573.070312 700.683594 529.832031 712.191406 481.902344 C 715.554688 467.957031 717.996094 453.746094 719.445312 439.648438 C 722.980469 405.191406 720.851562 370.605469 713.140625 336.851562 C 713.628906 326.367188 716.78125 208.78125 620.957031 132.917969 C 523.234375 55.660156 416.339844 64.820312 408.363281 65.636719 C 392.632812 63.476562 377.53125 62.609375 363.488281 63.125 C 287.652344 65.921875 231.78125 97.269531 211.734375 147.519531 L 194.136719 128.824219 C 192.339844 126.898438 149.726562 82.007812 116.210938 106.292969 C 92.363281 123.519531 88.753906 153.234375 106.300781 187.828125 C 108.617188 192.378906 112.832031 195.542969 117.871094 196.511719 C 123.003906 197.488281 128.179688 196.082031 132.117188 192.625 C 135.695312 189.457031 137.746094 184.941406 137.746094 180.242188 C 137.746094 178.132812 137.316406 175.984375 136.53125 174.085938 C 135.363281 171.167969 131.863281 161.398438 135.8125 158.179688 C 140.828125 154.152344 151.125 162.59375 153.503906 164.96875 L 173.566406 186.261719 C 161.511719 198.730469 150.460938 212.132812 140.75 226.242188 C 140.71875 226.273438 140.664062 226.285156 140.636719 226.324219 C 140.410156 226.558594 140.3125 226.851562 140.140625 227.109375 C 117.992188 259.1875 102.121094 294.792969 92.960938 332.949219 C 91.261719 340.148438 89.820312 347.207031 88.65625 353.980469 C 79.765625 371.769531 72.117188 389.460938 65.945312 406.542969 C 62.714844 415.335938 67.175781 425.109375 76.210938 428.445312 L 77.582031 428.851562 C 78.882812 429.167969 80.191406 429.316406 81.488281 429.316406 C 82.648438 429.316406 83.800781 429.191406 84.925781 428.949219 C 85.097656 431.433594 85.234375 433.921875 85.445312 436.378906 C 80.597656 440.917969 70.261719 452.640625 75.386719 466.371094 C 77.304688 471.472656 80.40625 474.644531 83.796875 476.542969 C 79.304688 481.914062 76.910156 488.691406 79.570312 496.222656 C 81.855469 502.652344 85.574219 507.015625 90.621094 509.179688 C 90.921875 509.3125 91.21875 509.34375 91.519531 509.453125 C 88.171875 514.957031 87.085938 521.359375 90.6875 527.863281 C 94.296875 534.417969 99.074219 536.777344 102.445312 537.605469 C 103.839844 537.945312 105.199219 538.089844 106.5 538.089844 C 108.496094 538.089844 110.335938 537.742188 111.941406 537.277344 C 121.257812 558.082031 132.644531 577.835938 146 595.980469 C 146.042969 596.054688 146.09375 596.113281 146.136719 596.179688 C 146.175781 596.230469 146.203125 596.285156 146.242188 596.332031 C 146.28125 596.386719 146.28125 596.449219 146.320312 596.496094 C 154.15625 607.066406 162.535156 617.011719 171.226562 626.191406 C 167.910156 633.523438 166.253906 644.960938 176.445312 652.867188 C 180.5 655.992188 184.585938 657.171875 188.386719 657.171875 C 192.988281 657.171875 197.140625 655.4375 200.300781 653.367188 C 214.792969 665.289062 230.273438 675.9375 246.449219 685.003906 C 249.949219 691.441406 263.472656 714.542969 279.308594 718.378906 C 281.070312 718.796875 282.726562 718.988281 284.285156 718.988281 C 291.898438 718.988281 297.15625 714.40625 300.203125 708.894531 C 309.269531 711.960938 318.589844 714.742188 328.101562 717.003906 C 350.339844 722.371094 373.066406 725.230469 395.765625 725.742188 C 396.378906 729.980469 398.414062 733.769531 401.628906 736.449219 C 403.546875 738.050781 405.769531 739.167969 408.222656 739.761719 C 409.488281 740.074219 410.777344 740.226562 412.054688 740.226562 C 417.070312 740.226562 421.980469 737.894531 425.277344 733.738281 C 427.65625 730.667969 430.019531 727.589844 432.367188 724.496094 C 497.164062 718.394531 559.761719 691.824219 609.542969 649.386719 L 700.097656 745.59375 C 705.039062 750.871094 711.753906 753.898438 719.003906 754.121094 C 719.289062 754.128906 719.582031 754.132812 719.867188 754.132812 C 726.835938 754.132812 733.4375 751.515625 738.496094 746.738281 C 744.011719 741.621094 747.050781 734.582031 747.050781 726.917969 C 747.066406 719.910156 744.445312 713.289062 739.703125 708.285156 Z M 709.027344 432.511719 C 703.101562 431.304688 697.179688 430.089844 691.332031 428.988281 C 685.035156 427.777344 678.789062 426.667969 672.554688 425.621094 C 672.539062 425.613281 672.519531 425.625 672.5 425.621094 C 664.636719 424.214844 657.398438 423.035156 650.441406 422.042969 C 639.222656 420.285156 627.953125 418.726562 616.957031 417.410156 C 600.828125 415.421875 584.078125 413.871094 567.164062 412.652344 C 568.109375 407.28125 568.988281 401.976562 569.796875 396.734375 C 584.023438 397.726562 598.699219 399.027344 613.640625 400.71875 C 613.847656 400.738281 614.058594 400.75 614.265625 400.75 C 617.019531 400.75 619.394531 398.683594 619.707031 395.878906 C 620.046875 392.867188 617.878906 390.152344 614.875 389.8125 C 600.0625 388.140625 585.523438 386.847656 571.390625 385.851562 C 572.175781 380.246094 572.878906 374.640625 573.496094 369.03125 C 633.347656 370.9375 676.125 375.703125 676.5625 375.753906 C 676.773438 375.773438 676.980469 375.785156 677.183594 375.785156 C 679.9375 375.785156 682.3125 373.71875 682.628906 370.914062 C 682.972656 367.902344 680.804688 365.1875 677.796875 364.847656 C 677.359375 364.796875 634.644531 360.035156 574.675781 358.09375 C 575.542969 349.257812 576.230469 340.535156 576.722656 332.007812 C 642.117188 334.070312 689.816406 340.273438 703.046875 342.148438 C 709.535156 371.867188 711.535156 402.214844 709.027344 432.511719 Z M 560.328125 517.78125 L 548.265625 504.972656 C 581.609375 486.96875 614.5625 464.023438 651.195312 433.25 C 654.425781 433.726562 657.726562 434.238281 661.109375 434.796875 C 647.832031 450.179688 633.382812 464.601562 617.898438 477.640625 C 600.347656 492.542969 580.964844 505.992188 560.328125 517.78125 Z M 612.585938 496.015625 C 607.601562 516.507812 601.363281 535.753906 593.992188 553.535156 L 568.035156 525.972656 C 583.691406 516.894531 598.621094 506.886719 612.585938 496.015625 Z M 414.863281 601.570312 C 414.957031 601.570312 415.046875 601.570312 415.136719 601.566406 C 434.972656 600.59375 454.820312 597.253906 474.335938 591.875 C 470.910156 598.957031 467.382812 606 463.710938 612.976562 C 400.433594 623.339844 332.691406 617.523438 262.277344 595.695312 C 261.035156 590.578125 259.90625 585.515625 258.863281 580.511719 C 284.3125 583.628906 309.238281 585.261719 333.542969 585.261719 C 388.34375 585.261719 440.058594 577.253906 488.171875 561.488281 C 485.726562 567.226562 483.195312 572.949219 480.578125 578.664062 C 458.917969 585.457031 436.738281 589.515625 414.605469 590.601562 C 411.578125 590.75 409.246094 593.328125 409.394531 596.347656 C 409.53125 599.289062 411.957031 601.570312 414.863281 601.570312 Z M 262.203125 569.894531 C 268.933594 560.96875 276.335938 551.332031 284.890625 540.335938 C 293.691406 540.722656 302.359375 540.941406 310.871094 540.941406 C 371.875 540.941406 425.878906 530.96875 478.621094 510.277344 L 488.203125 520.457031 C 449.773438 534.988281 408.507812 544.636719 362.265625 549.773438 C 359.253906 550.105469 357.085938 552.816406 357.414062 555.828125 C 357.726562 558.632812 360.101562 560.710938 362.863281 560.710938 C 363.066406 560.710938 363.269531 560.699219 363.476562 560.679688 C 412.347656 555.253906 455.839844 544.890625 496.351562 529.113281 L 499.75 532.730469 C 497.824219 537.871094 495.839844 542.988281 493.792969 548.09375 C 424.117188 572.601562 346.257812 579.921875 262.203125 569.894531 Z M 511.046875 331.519531 C 518.027344 331.359375 524.765625 331.308594 531.5 331.316406 C 531.535156 331.316406 531.5625 331.332031 531.59375 331.332031 C 531.621094 331.332031 531.648438 331.316406 531.675781 331.316406 C 535.511719 331.316406 539.363281 331.335938 543.238281 331.363281 C 542.730469 340.042969 542.035156 348.753906 541.140625 357.449219 C 507.941406 357.097656 476.246094 357.882812 446.472656 359.722656 C 456.058594 350.4375 465.652344 341.335938 475.144531 332.648438 C 486.910156 332.117188 498.660156 331.742188 511.046875 331.519531 Z M 487.882812 321.171875 C 492.472656 317.058594 497.085938 313 501.726562 308.957031 C 502.621094 312.871094 503.460938 316.785156 504.242188 320.710938 C 498.714844 320.835938 493.234375 320.984375 487.882812 321.171875 Z M 511.101562 300.859375 C 513.753906 298.59375 516.4375 296.367188 519.109375 294.128906 C 520.34375 298.851562 521.511719 303.574219 522.511719 308.25 C 523.453125 312.460938 524.253906 316.453125 525.007812 320.394531 C 521.824219 320.410156 518.621094 320.441406 515.390625 320.496094 C 514.105469 313.941406 512.675781 307.382812 511.101562 300.859375 Z M 554.890625 265.09375 C 558.5625 262.226562 562.273438 259.417969 565.972656 256.585938 C 566.675781 268.316406 567.035156 280.773438 567.035156 294.621094 C 567.035156 294.671875 567.007812 294.714844 567.007812 294.765625 C 567.007812 294.808594 567.03125 294.847656 567.035156 294.890625 C 566.976562 305.988281 566.675781 316.1875 566.109375 326.097656 C 565.53125 337.910156 564.566406 350.183594 563.25 362.578125 C 563.234375 362.667969 563.179688 362.746094 563.167969 362.839844 C 562.246094 371.867188 561.09375 381.03125 559.742188 390.074219 C 558.449219 398.839844 557.003906 407.535156 555.328125 416.640625 C 552.015625 434.402344 548.128906 451.710938 543.78125 468.105469 C 543.78125 468.117188 543.777344 468.128906 543.773438 468.132812 C 541.609375 476.445312 539.253906 484.675781 536.8125 492.816406 L 527.777344 483.222656 C 530.925781 472.289062 533.78125 461.636719 536.207031 451.550781 C 536.207031 451.546875 536.207031 451.539062 536.214844 451.535156 C 536.230469 451.457031 536.25 451.378906 536.273438 451.304688 C 537.578125 445.726562 538.867188 440.140625 540.015625 434.5625 C 540.042969 434.457031 540.109375 434.382812 540.128906 434.277344 C 541.347656 428.679688 542.457031 423.148438 543.503906 417.519531 C 545.285156 408.210938 546.828125 399.125 548.09375 390.519531 C 549.433594 381.445312 550.601562 372.375 551.574219 363.554688 C 552.949219 351.144531 553.957031 338.570312 554.5625 326.234375 C 555.035156 318.078125 555.328125 309.375 555.449219 300.371094 C 555.609375 288.589844 555.394531 276.746094 554.890625 265.09375 Z M 557.75 457.675781 C 560.449219 446.589844 562.917969 435.148438 565.164062 423.503906 C 577.761719 424.390625 590.171875 425.542969 602.394531 426.871094 C 587.210938 438.253906 572.429688 448.460938 557.75 457.675781 Z M 618.257812 428.636719 C 624.316406 429.378906 630.4375 430.199219 636.601562 431.089844 C 605.496094 456.652344 576.964844 476.519531 548.390625 492.433594 C 550.285156 486 552.105469 479.527344 553.820312 473.007812 C 574.984375 460.292969 596.109375 445.753906 618.257812 428.636719 Z M 551.222656 587.410156 C 546.617188 589.378906 541.972656 591.269531 537.246094 593.082031 C 539.261719 588.339844 541.167969 583.507812 542.878906 578.542969 Z M 536.164062 320.371094 C 535.582031 317.238281 534.945312 314.035156 534.261719 310.777344 C 537.59375 309.695312 540.941406 308.65625 544.316406 307.660156 C 544.207031 312.015625 544.050781 316.261719 543.855469 320.410156 C 541.316406 320.394531 538.746094 320.382812 536.164062 320.371094 Z M 531.859375 300.027344 C 530.800781 295.496094 529.648438 290.949219 528.378906 286.390625 C 533.800781 281.890625 539.042969 277.628906 544.183594 273.53125 C 544.414062 281.058594 544.523438 288.617188 544.472656 296.195312 C 540.25 297.398438 536.042969 298.683594 531.859375 300.027344 Z M 539.953125 368.414062 C 539.339844 373.589844 538.660156 378.8125 537.917969 384.078125 C 496.964844 382.566406 456.804688 383.75 418.277344 387.644531 C 423.625 382.199219 428.996094 376.792969 434.390625 371.480469 C 467.171875 369.054688 502.675781 368.039062 539.953125 368.414062 Z M 536.285156 395 C 535.46875 400.167969 534.5625 405.457031 533.5625 410.875 C 483.527344 409.09375 434.96875 411.617188 388.878906 418.375 C 394.738281 412.082031 400.550781 405.921875 406.261719 400.003906 C 447.882812 395.066406 491.578125 393.398438 536.285156 395 Z M 531.460938 421.785156 C 531.0625 423.828125 530.65625 425.882812 530.230469 427.917969 C 512 429.132812 494.058594 430.578125 476.882812 432.257812 C 459.269531 433.925781 441.59375 435.890625 422.796875 438.265625 C 415.933594 439.195312 409.121094 440.128906 402.472656 441.0625 C 394.261719 442.21875 386.164062 443.433594 378.320312 444.695312 C 373.246094 445.476562 368.007812 446.328125 362.554688 447.246094 C 367.320312 441.878906 372.09375 436.5625 376.871094 431.332031 C 425.71875 423.183594 477.625 420 531.460938 421.785156 Z M 382.558594 489.140625 C 383.109375 489.3125 383.65625 489.394531 384.207031 489.394531 C 386.539062 489.394531 388.699219 487.890625 389.4375 485.550781 C 393 474.210938 398.351562 463.617188 406.472656 451.589844 C 411.410156 450.902344 416.410156 450.210938 421.441406 449.527344 L 450.941406 480.871094 C 419.714844 492.023438 389.84375 498.476562 360.113281 500.492188 C 364.875 484.351562 372.214844 469.453125 382.324219 455.183594 C 385.542969 454.671875 388.78125 454.160156 392.0625 453.667969 C 386.191406 463.410156 382.027344 472.542969 378.972656 482.269531 C 378.0625 485.160156 379.667969 488.238281 382.558594 489.140625 Z M 367.589844 457.535156 C 359.035156 471.257812 352.769531 485.632812 348.59375 501.066406 C 338.113281 501.371094 327.570312 501.121094 317.101562 500.28125 C 328.5625 486.414062 339.917969 473.03125 350.96875 460.394531 C 356.773438 459.363281 362.285156 458.414062 367.589844 457.535156 Z M 340.34375 512.203125 C 344.507812 512.203125 348.675781 512.109375 352.828125 511.941406 C 352.828125 511.941406 352.828125 511.941406 352.835938 511.941406 C 352.839844 511.941406 352.835938 511.941406 352.839844 511.941406 C 352.917969 511.933594 352.988281 511.941406 353.066406 511.933594 C 387.835938 510.449219 422.582031 503.089844 459.136719 489.574219 L 470.535156 501.683594 C 415.46875 522.652344 358.722656 531.636719 293.308594 529.675781 C 298.152344 523.546875 303.269531 517.179688 308.738281 510.464844 C 319.210938 511.578125 329.785156 512.203125 340.34375 512.203125 Z M 489.097656 442.136719 C 501.765625 440.992188 514.730469 439.96875 527.769531 439.078125 C 527.222656 441.527344 526.695312 443.984375 526.132812 446.425781 C 519.097656 450.332031 511.699219 454.210938 504.058594 458.027344 Z M 522.53125 460.859375 C 521.417969 465.132812 520.234375 469.480469 519.003906 473.898438 L 511.894531 466.351562 C 515.496094 464.527344 519.054688 462.707031 522.53125 460.859375 Z M 525.042969 559.597656 L 534.289062 569.417969 C 530.984375 579.949219 526.964844 590.074219 522.230469 599.535156 C 515.285156 613.6875 506.667969 627.144531 496.585938 639.570312 C 489.367188 648.648438 481.1875 657.402344 472.171875 665.785156 C 492.476562 632.277344 510.183594 596.707031 525.042969 559.597656 Z M 530.542969 607.289062 C 540.316406 603.859375 549.921875 600.019531 559.234375 595.917969 L 565.660156 602.738281 C 551.769531 611.242188 533.996094 621.386719 517.519531 629.5 C 522.300781 622.328125 526.65625 614.914062 530.542969 607.289062 Z M 576.992188 248.214844 C 588.671875 239.460938 600.832031 230.726562 613.257812 222.160156 C 622.609375 230.351562 631.636719 239.007812 640.179688 248.089844 C 618.910156 247.332031 597.75 247.371094 576.992188 248.214844 Z M 650.480469 259.449219 C 657.070312 267.046875 663.339844 274.875 669.207031 282.851562 C 639.160156 280.480469 608.554688 282.28125 577.957031 288.144531 C 577.875 277.832031 577.585938 268.238281 577.097656 259.1875 C 601.0625 258.199219 625.613281 258.269531 650.480469 259.449219 Z M 577.34375 321.050781 C 577.667969 314.078125 577.871094 306.882812 577.953125 299.308594 C 611.78125 292.585938 644.433594 291.050781 677.535156 294.65625 C 687.875 309.949219 694.660156 322.597656 698.5 330.453125 C 679.636719 327.980469 635.375 322.898438 577.34375 321.050781 Z M 614.148438 141.53125 C 659.820312 177.683594 681.910156 223.8125 692.566406 262.183594 C 649.761719 165.085938 553.910156 105.960938 469.675781 79.578125 C 509.566406 85.660156 563.582031 101.546875 614.148438 141.53125 Z M 363.882812 74.085938 C 377.585938 73.59375 392.351562 74.449219 407.808594 76.613281 C 496.585938 88.824219 626.367188 147.230469 679.839844 260.902344 C 650.738281 213.316406 608.25 172.921875 552.691406 140.332031 C 550.085938 138.796875 546.722656 139.679688 545.183594 142.292969 C 543.652344 144.902344 544.523438 148.265625 547.140625 149.800781 C 600.652344 181.1875 641.628906 219.984375 669.789062 265.570312 C 665.730469 260.449219 661.554688 255.386719 657.214844 250.441406 C 657.179688 250.398438 657.125 250.382812 657.078125 250.339844 C 657.070312 250.328125 657.050781 250.316406 657.042969 250.304688 C 644.742188 236.324219 631.347656 223.097656 617.222656 211.003906 C 610.089844 204.886719 602.515625 198.847656 594.699219 193.039062 C 584.5625 185.539062 574.765625 178.941406 564.753906 172.867188 C 564.683594 172.820312 564.644531 172.742188 564.566406 172.691406 C 556.03125 167.476562 547.101562 162.429688 538.011719 157.695312 C 524.945312 150.902344 511.101562 144.605469 496.84375 138.96875 C 496.765625 138.933594 496.683594 138.90625 496.609375 138.878906 C 496.601562 138.878906 496.59375 138.875 496.585938 138.875 C 493.832031 137.800781 491.085938 136.769531 488.277344 135.742188 C 486.378906 135.019531 484.480469 134.292969 482.582031 133.640625 C 470.613281 129.390625 458.96875 125.765625 447.96875 122.867188 C 447.945312 122.863281 447.925781 122.867188 447.898438 122.863281 C 431.1875 118.382812 414.371094 115.011719 397.902344 112.855469 C 384.523438 111.125 370.980469 110.1875 357.644531 110.070312 C 357.628906 110.070312 357.613281 110.070312 357.597656 110.070312 C 357.589844 110.070312 357.585938 110.070312 357.578125 110.070312 C 357.574219 110.070312 357.570312 110.070312 357.570312 110.070312 C 338.480469 110.015625 319.703125 111.621094 302.027344 114.980469 C 302.019531 114.980469 302.007812 114.984375 301.996094 114.984375 C 301.980469 114.992188 301.964844 114.992188 301.945312 114.992188 C 279.867188 119.148438 261.722656 125.40625 247.554688 131.679688 C 277.734375 109.101562 318.578125 96.53125 369.632812 94.320312 C 372.660156 94.191406 375 91.628906 374.875 88.605469 C 374.742188 85.578125 372.226562 83.28125 369.160156 83.363281 C 313.1875 85.792969 268.726562 100.273438 236.355469 126.445312 C 261.132812 94.898438 305.609375 76.238281 363.882812 74.085938 Z M 581.941406 197.347656 C 578.542969 199.660156 575.183594 201.984375 571.8125 204.332031 C 571.050781 199.011719 570.226562 193.84375 569.355469 188.765625 C 573.535156 191.503906 577.722656 194.347656 581.941406 197.347656 Z M 561.710938 211.390625 C 558.117188 213.9375 554.554688 216.539062 550.992188 219.125 C 549.109375 203.621094 546.574219 188.214844 543.40625 173.105469 C 547.941406 175.628906 552.40625 178.199219 556.773438 180.839844 C 558.644531 190.628906 560.265625 200.695312 561.710938 211.390625 Z M 238.730469 491.167969 C 238.640625 504.046875 239.199219 516.992188 240.304688 529.71875 C 234.210938 537.644531 228.019531 545.882812 221.808594 554.265625 C 212.296875 463.042969 229.378906 364.75 268.382812 286.980469 L 285.671875 305.347656 C 279.355469 317.65625 273.363281 330.515625 267.921875 343.792969 C 266.421875 347.511719 264.980469 351.179688 263.597656 354.878906 C 258.167969 369.308594 253.542969 384.34375 249.855469 399.558594 C 247.371094 409.71875 245.292969 419.921875 243.679688 429.894531 C 242.019531 440.367188 240.785156 450.792969 240.015625 460.863281 C 240.011719 460.957031 240.003906 461.046875 240 461.132812 C 240 461.132812 240 461.140625 240 461.140625 C 239.164062 471.414062 238.738281 481.417969 238.738281 490.835938 C 238.738281 490.886719 238.710938 490.929688 238.710938 490.980469 C 238.699219 491.046875 238.730469 491.101562 238.730469 491.167969 Z M 212.25 567.238281 C 208.402344 572.519531 204.578125 577.914062 200.746094 583.265625 C 189.199219 466.3125 207.757812 362.296875 255.984375 273.765625 L 260.378906 278.429688 C 217.460938 361.917969 199.527344 469.339844 212.25 567.238281 Z M 439.164062 162.269531 C 441.601562 161.117188 444.070312 160.019531 446.566406 158.945312 C 465 179.816406 479.960938 201.226562 492.070312 224.097656 C 489.164062 224.441406 486.316406 224.820312 483.527344 225.222656 C 471.484375 201.6875 456.597656 180.5625 439.164062 162.269531 Z M 472.066406 226.960938 C 465.785156 227.941406 459.570312 229.054688 453.4375 230.316406 C 452.667969 216.144531 449.867188 201.320312 444.996094 185.601562 C 455.160156 198.265625 464.207031 212.09375 472.066406 226.960938 Z M 442.554688 232.582031 C 438.515625 233.460938 434.621094 234.375 430.871094 235.324219 C 423.164062 218.148438 416.382812 199.421875 410.285156 178.351562 C 415.902344 174.765625 421.546875 171.464844 427.195312 168.414062 C 436.667969 191.820312 441.722656 212.917969 442.554688 232.582031 Z M 457.328125 154.589844 C 471.980469 149.175781 482.363281 147.128906 485.8125 146.542969 C 487.492188 147.15625 489.152344 147.789062 490.808594 148.425781 C 500.792969 169.191406 507.367188 194.015625 510.402344 222.28125 C 508.195312 222.460938 505.988281 222.652344 503.804688 222.875 C 491.484375 198.824219 476.214844 176.382812 457.328125 154.589844 Z M 445.964844 147.238281 C 439.625 149.851562 433.394531 152.726562 427.464844 155.765625 C 418.601562 160.285156 409.636719 165.515625 400.828125 171.320312 C 400.753906 171.371094 400.71875 171.445312 400.644531 171.503906 C 394.964844 175.226562 389.050781 179.476562 382.566406 184.511719 C 382.558594 184.519531 382.554688 184.523438 382.550781 184.53125 C 382.523438 184.550781 382.496094 184.570312 382.46875 184.589844 C 375.160156 190.328125 368.441406 196.078125 361.917969 202.175781 C 344.835938 218.148438 329.054688 236.625 314.789062 256.972656 L 297.84375 238.980469 C 356.574219 160.828125 434.90625 137.027344 446.488281 133.867188 C 452.988281 135.605469 459.757812 137.667969 466.664062 139.90625 C 460.828125 141.640625 453.859375 144.003906 445.964844 147.238281 Z M 330.902344 274.085938 L 322.445312 265.101562 C 334.734375 247.355469 348.261719 231.183594 362.753906 216.789062 C 366.136719 229.421875 370.109375 241.730469 374.605469 253.570312 C 359.890625 259.484375 345.238281 266.355469 330.902344 274.085938 Z M 378.664062 263.765625 C 381.292969 270.167969 384.15625 276.585938 387.246094 282.992188 C 375.214844 287.371094 363.621094 292.117188 352.632812 297.15625 L 338.703125 282.367188 C 351.835938 275.394531 365.222656 269.164062 378.664062 263.765625 Z M 311.003906 332.246094 L 318.03125 339.714844 C 309.320312 341.429688 300.589844 343.316406 291.875 345.363281 C 298.035156 340.804688 304.441406 336.445312 311.003906 332.246094 Z M 281.90625 339.171875 C 285.648438 330.519531 289.578125 322.070312 293.695312 313.867188 L 303.355469 324.128906 C 295.960938 328.921875 288.804688 333.941406 281.90625 339.171875 Z M 290.214844 230.867188 L 274.957031 214.660156 C 284.21875 203.015625 293.941406 192.171875 303.980469 182.46875 C 314.535156 172.242188 325.59375 163.011719 336.855469 155.03125 C 356.351562 141.191406 376.855469 130.746094 397.820312 123.9375 C 407.257812 125.210938 416.804688 126.925781 426.390625 128.996094 C 396.640625 140.222656 337.425781 168.863281 290.214844 230.867188 Z M 297.664062 173.363281 C 289.257812 174.542969 280.71875 176.039062 272.089844 177.832031 C 278.738281 172.367188 285.414062 167.128906 292.074219 162.175781 C 299.375 160.914062 306.734375 159.753906 314.117188 158.6875 C 308.527344 163.3125 303.039062 168.214844 297.664062 173.363281 Z M 331.667969 145.292969 C 325.308594 146.0625 318.929688 146.910156 312.554688 147.828125 C 327.964844 137.589844 343.433594 128.601562 358.757812 121.089844 C 363.558594 121.152344 368.390625 121.382812 373.230469 121.65625 C 359.015625 127.964844 345.105469 135.859375 331.667969 145.292969 Z M 286.59375 152.566406 C 273.597656 162.175781 260.53125 172.820312 247.738281 184.210938 L 246.949219 184.917969 L 239.128906 176.613281 C 260.585938 157.3125 282.714844 140.132812 305.046875 125.605469 C 314.359375 123.871094 323.988281 122.671875 333.8125 121.929688 C 318.046875 130.828125 302.238281 141.015625 286.59375 152.566406 Z M 284.65625 186.582031 C 278.742188 192.921875 272.96875 199.609375 267.359375 206.597656 L 254.683594 193.136719 C 264.765625 190.535156 274.78125 188.359375 284.65625 186.582031 Z M 261.972656 501.855469 C 257.902344 506.976562 254.070312 511.851562 250.417969 516.542969 C 250.082031 510.519531 249.894531 504.484375 249.828125 498.421875 C 253.839844 499.640625 257.902344 500.792969 261.972656 501.855469 Z M 259.144531 489.792969 C 265.199219 486.996094 271.550781 484.351562 278.113281 481.796875 C 275.058594 485.53125 272.222656 489.042969 269.472656 492.464844 C 266.003906 491.609375 262.542969 490.75 259.144531 489.792969 Z M 249.894531 482.078125 C 250.042969 476.585938 250.3125 470.980469 250.730469 465.21875 C 269.273438 458.183594 288.308594 451.941406 307.574219 446.589844 C 301.933594 453.152344 296.773438 459.246094 291.929688 465.082031 C 276.640625 470.238281 262.808594 475.855469 249.894531 482.078125 Z M 251.789062 453.140625 C 252.394531 447.101562 253.140625 441.011719 254.0625 434.863281 C 274.265625 427.734375 295.390625 421.390625 316.9375 416.058594 C 324.265625 414.265625 331.640625 412.621094 339.011719 411.058594 C 332.644531 418.054688 326.390625 425.015625 320.371094 431.859375 C 297.140625 437.6875 274.144531 444.863281 251.789062 453.140625 Z M 314.316406 405.40625 C 294.441406 410.328125 274.964844 416.109375 256.175781 422.539062 C 257.261719 416.757812 258.472656 410.945312 259.851562 405.109375 C 288.398438 395.5 316.160156 388.046875 342.378906 383.042969 C 351.152344 381.390625 360.195312 379.933594 369.328125 378.566406 C 363.773438 384.363281 357.914062 390.5625 351.617188 397.304688 C 339.238281 399.667969 326.707031 402.375 314.316406 405.40625 Z M 340.332031 372.265625 C 315.664062 376.96875 289.664062 383.859375 262.996094 392.566406 C 265.859375 381.980469 269.1875 371.546875 272.917969 361.390625 C 291.761719 356.382812 310.875 352.066406 329.8125 348.601562 C 339.753906 346.738281 349.175781 345.15625 358.628906 343.757812 C 366.3125 342.609375 373.941406 341.519531 381.519531 340.589844 C 381.519531 340.589844 381.523438 340.589844 381.523438 340.589844 C 381.527344 340.589844 381.535156 340.589844 381.535156 340.589844 C 391.871094 339.289062 401.425781 338.214844 410.617188 337.300781 C 400.925781 346.640625 391.28125 356.109375 381.816406 365.703125 C 367.699219 367.546875 353.75 369.742188 340.332031 372.265625 Z M 382.949219 329.363281 L 360.574219 305.597656 C 370.640625 301.089844 381.207031 296.832031 392.136719 292.882812 C 397.925781 304.125 404.386719 315.269531 411.453125 326.179688 C 402.503906 327.058594 393.058594 328.117188 382.949219 329.363281 Z M 399.691406 283.640625 C 394.851562 274.019531 390.503906 264.28125 386.746094 254.671875 C 386.742188 254.65625 386.730469 254.640625 386.722656 254.621094 C 380.839844 239.8125 375.851562 224.144531 371.816406 208.035156 C 375.359375 204.792969 379.011719 201.628906 382.761719 198.519531 C 395.128906 244.832031 412.136719 282.972656 434.589844 314.660156 C 430.941406 318.027344 427.292969 321.410156 423.667969 324.804688 C 414.714844 311.390625 406.636719 297.578125 399.691406 283.640625 Z M 392.109375 191.0625 C 395.089844 188.804688 397.972656 186.6875 400.75 184.738281 C 407.207031 206.53125 414.359375 226.015625 422.605469 243.804688 C 422.636719 243.882812 422.664062 243.953125 422.703125 244.023438 C 422.707031 244.042969 422.71875 244.058594 422.726562 244.074219 C 427.585938 254.628906 433.011719 264.910156 438.859375 274.605469 C 443.574219 282.476562 448.710938 289.964844 454.042969 297.117188 C 450.265625 300.453125 446.515625 303.820312 442.78125 307.210938 C 420.726562 275.757812 404.089844 237.671875 392.109375 191.0625 Z M 452.367188 275.386719 C 463.886719 272.730469 475.632812 270.378906 487.546875 268.371094 C 479.179688 275.308594 470.746094 282.484375 462.296875 289.839844 C 458.863281 285.1875 455.554688 280.367188 452.367188 275.386719 Z M 446.316406 265.515625 C 442.53125 259.039062 438.976562 252.324219 435.632812 245.441406 C 440.019531 244.359375 444.53125 243.3125 449.417969 242.300781 C 459.773438 239.992188 470.453125 238.078125 481.265625 236.609375 C 487.660156 235.609375 494.160156 234.796875 501.234375 234.113281 C 506.421875 233.519531 511.609375 233.085938 516.886719 232.707031 C 522.320312 232.285156 527.964844 231.957031 533.867188 231.703125 C 524.332031 238.886719 514.574219 246.476562 504.328125 254.667969 C 484.59375 257.402344 465.121094 261.058594 446.316406 265.515625 Z M 521.34375 221.402344 C 518.6875 196.511719 513.371094 174.113281 505.476562 154.558594 C 514.113281 158.28125 522.578125 162.183594 530.699219 166.339844 C 534.730469 183.960938 537.863281 202.082031 540.109375 220.503906 C 533.515625 220.707031 527.292969 221.007812 521.34375 221.402344 Z M 275.304688 132.976562 C 260.519531 143.84375 245.914062 155.742188 231.605469 168.621094 L 222.039062 158.464844 C 229.894531 152.90625 247.84375 141.683594 275.304688 132.976562 Z M 215.683594 230.980469 L 233.113281 249.488281 C 212.929688 257.652344 193.394531 267.710938 174.710938 279.566406 C 187.5 262.753906 201.195312 246.492188 215.683594 230.980469 Z M 124.386719 385.757812 C 121.402344 385.1875 118.539062 387.15625 117.980469 390.136719 C 116.390625 398.597656 115.277344 406.996094 114.507812 415.496094 C 106.46875 420.542969 100.246094 424.847656 95.863281 428.0625 C 95.722656 425.910156 95.519531 423.78125 95.414062 421.632812 C 96.1875 420.476562 96.851562 419.269531 97.269531 418.023438 C 103.691406 400.171875 111.75 381.867188 121.199219 363.609375 C 130.203125 354.101562 139.972656 345.066406 150.3125 336.53125 C 143.152344 357.796875 137.515625 380.515625 133.492188 404.347656 C 131.085938 405.675781 128.679688 407.007812 126.28125 408.394531 C 126.949219 403.046875 127.738281 397.644531 128.769531 392.171875 C 129.320312 389.1875 127.359375 386.316406 124.386719 385.757812 Z M 166.5 323.9375 C 176.269531 316.800781 186.640625 310.027344 197.507812 303.628906 C 180.015625 326.492188 165.066406 357.300781 154.074219 393.601562 C 151.339844 394.945312 148.613281 396.296875 145.898438 397.695312 C 150.816406 371.472656 157.667969 346.675781 166.5 323.9375 Z M 207.269531 308.933594 C 207.09375 309.347656 206.90625 309.746094 206.730469 310.15625 C 197.480469 332.390625 189.589844 355.976562 183.191406 380.257812 C 177.757812 382.566406 172.5625 384.851562 167.644531 387.113281 C 178.144531 355.488281 191.714844 328.808594 207.269531 308.933594 Z M 158.683594 316.023438 C 151.96875 320.957031 145.519531 326.167969 139.238281 331.511719 C 144.367188 323.03125 149.742188 314.605469 155.386719 306.285156 C 178.683594 288.617188 203.660156 274.03125 229.808594 262.746094 C 226.921875 267.910156 224.152344 273.101562 221.503906 278.308594 C 198.78125 289.382812 177.636719 302.050781 158.683594 316.023438 Z M 181.085938 194.25 L 189.699219 203.394531 C 180.65625 207.074219 171.640625 211.019531 162.671875 215.210938 C 168.476562 207.964844 174.617188 200.964844 181.085938 194.25 Z M 148.53125 234.292969 C 159.472656 228.703125 170.585938 223.492188 181.75 218.644531 C 153.800781 249.890625 128.996094 283.589844 108.402344 318.132812 C 117.445312 288.222656 130.878906 260.09375 148.53125 234.292969 Z M 80.460938 418.257812 L 79.691406 418.039062 C 76.644531 416.910156 75.097656 413.449219 76.257812 410.292969 C 82.375 393.359375 89.96875 375.824219 98.816406 358.183594 C 124.035156 308.105469 159.109375 258.621094 200.324219 214.667969 L 208.152344 222.976562 C 185.683594 246.988281 165.023438 272.625 146.816406 299.363281 C 133.828125 318.457031 122.078125 338.101562 111.902344 357.738281 C 111.882812 357.78125 111.835938 357.804688 111.816406 357.847656 C 101.980469 376.777344 93.613281 395.773438 86.902344 414.429688 C 86.679688 415.082031 86.300781 415.71875 85.671875 416.390625 C 84.277344 417.980469 82.183594 418.671875 80.460938 418.257812 Z M 121.652344 532.121094 C 126.320312 528.988281 131.042969 525.910156 135.8125 522.886719 C 136.066406 538.042969 137.222656 552.457031 139.3125 565.988281 C 132.765625 555.105469 126.851562 543.804688 121.652344 532.121094 Z M 138.386719 508.304688 C 129.347656 513.847656 120.339844 519.675781 111.710938 525.554688 C 110.746094 526.167969 107.667969 527.613281 105.023438 526.9375 C 103.214844 526.476562 101.671875 525.042969 100.300781 522.558594 C 96.894531 516.40625 105.523438 509.789062 107.601562 508.3125 C 107.675781 508.269531 107.757812 508.253906 107.832031 508.203125 C 126.648438 495.566406 146.242188 483.925781 166.152344 473.378906 C 165.480469 480.015625 164.902344 486.609375 164.476562 493.125 C 156.066406 497.75 147.527344 502.695312 138.386719 508.304688 Z M 155.792969 590.804688 C 149.738281 568.921875 146.714844 543.792969 146.753906 516.082031 C 152.605469 512.519531 158.246094 509.230469 163.75 506.109375 C 162.050781 542.113281 163.8125 576.53125 168.914062 607.238281 C 164.410156 601.960938 160.027344 596.476562 155.792969 590.804688 Z M 167.609375 460.199219 C 145.269531 471.710938 123.292969 484.65625 102.242188 498.757812 C 101.589844 499.03125 98.003906 500.410156 94.957031 499.097656 C 92.832031 498.183594 91.136719 495.984375 89.921875 492.558594 C 87.5 485.691406 95.519531 480.117188 98.65625 478.257812 C 98.714844 478.230469 98.753906 478.183594 98.816406 478.15625 C 99 478.066406 99.199219 478.023438 99.378906 477.914062 C 99.675781 477.734375 127.757812 460.882812 170.324219 441.085938 C 169.359375 447.21875 168.457031 453.558594 167.609375 460.199219 Z M 172.582031 427.972656 C 129.773438 447.480469 99.824219 464.902344 94.609375 467.984375 C 92.234375 468.308594 87.773438 468.101562 85.671875 462.515625 C 82.0625 452.863281 94.355469 443.140625 94.71875 442.851562 C 94.8125 442.769531 104.019531 434.832031 122.519531 423.414062 C 128.578125 419.679688 134.804688 416.074219 141.03125 412.703125 C 147.785156 409.023438 154.328125 405.648438 161.074219 402.378906 C 166.785156 399.558594 173.058594 396.652344 179.742188 393.710938 C 177.046875 404.804688 174.664062 416.285156 172.582031 427.972656 Z M 175.199219 496.800781 C 175.847656 486.164062 176.835938 475.253906 178.128906 464.398438 C 179.523438 453.195312 181.042969 442.921875 182.765625 433 C 182.785156 432.90625 182.847656 432.828125 182.863281 432.734375 C 185.671875 416.507812 189.105469 400.683594 193.082031 385.664062 C 199.472656 360.925781 207.476562 336.9375 216.855469 314.390625 C 221.097656 304.277344 225.644531 294.375 230.378906 284.96875 C 230.40625 284.917969 230.445312 284.886719 230.464844 284.835938 C 234.542969 276.730469 239.023438 268.664062 243.679688 260.699219 L 248.058594 265.347656 C 195.726562 359.660156 176.554688 471.105469 191.101562 596.761719 C 187.652344 601.660156 184.21875 606.652344 180.785156 611.621094 C 174.488281 577.445312 172.535156 538.082031 175.199219 496.800781 Z M 196.109375 642.789062 C 194.496094 644.308594 188.996094 648.695312 183.175781 644.1875 C 176.0625 638.675781 181.835938 629.394531 182.472656 628.421875 C 188.710938 619.332031 194.953125 610.304688 201.25 601.375 C 208.253906 591.417969 215.316406 581.621094 222.367188 571.945312 C 231.726562 559.132812 241.105469 546.617188 250.257812 534.757812 C 250.378906 534.601562 250.492188 534.429688 250.597656 534.261719 C 258.078125 524.457031 266.328125 513.929688 275.820312 502.082031 C 282.636719 493.53125 290.125 484.375 299.394531 473.257812 C 307.597656 463.355469 316.527344 452.898438 327.492188 440.347656 C 337.320312 429.160156 347.726562 417.621094 358.425781 406.085938 C 358.492188 406.015625 358.5625 405.949219 358.621094 405.875 C 369.582031 394.117188 379.257812 383.964844 388.171875 374.859375 C 401.695312 361.117188 415.597656 347.484375 429.488281 334.363281 C 434.792969 329.382812 440.152344 324.410156 445.507812 319.492188 C 451.953125 313.597656 458.445312 307.753906 465.007812 302.015625 C 480.140625 288.726562 495.285156 275.988281 510.015625 264.164062 C 524.042969 252.929688 537.101562 242.875 549.941406 233.410156 C 556.820312 228.332031 563.753906 223.3125 570.753906 218.386719 C 577.546875 213.574219 584.398438 208.886719 591.269531 204.238281 C 595.839844 207.699219 600.28125 211.234375 604.621094 214.816406 C 591.914062 223.628906 579.421875 232.582031 567.550781 241.539062 C 560.273438 246.945312 553.101562 252.511719 545.949219 258.128906 C 537.128906 264.996094 528.199219 272.210938 518.691406 280.152344 C 512.898438 284.898438 507.164062 289.746094 501.425781 294.660156 C 490.632812 303.921875 479.851562 313.480469 469.378906 323.085938 C 469.324219 323.128906 469.257812 323.140625 469.207031 323.183594 C 455.636719 335.570312 441.8125 348.710938 428.144531 362.214844 C 418.605469 371.589844 409.042969 381.261719 399.742188 390.945312 C 390.128906 400.875 380.207031 411.445312 370.246094 422.363281 C 370.191406 422.417969 370.121094 422.4375 370.066406 422.492188 C 361.429688 431.941406 352.734375 441.683594 344.222656 451.433594 C 344.070312 451.582031 343.941406 451.742188 343.8125 451.90625 C 330.242188 467.386719 316.199219 483.992188 302.066406 501.277344 C 293.289062 512.023438 285.457031 521.824219 278.125 531.242188 C 278.074219 531.296875 278.007812 531.324219 277.964844 531.378906 C 266.324219 546.304688 256.878906 558.652344 248.269531 570.183594 C 247.683594 570.722656 247.203125 571.351562 246.890625 572.097656 C 239.242188 582.261719 231.0625 593.402344 221.210938 607.101562 C 211.464844 620.753906 203.476562 632.109375 196.109375 642.789062 Z M 207.746094 645.261719 C 212.550781 638.328125 217.640625 631.066406 223.363281 623.003906 C 227.546875 638.539062 232.511719 653.429688 238.386719 667.414062 C 227.765625 660.710938 217.53125 653.28125 207.746094 645.261719 Z M 281.871094 707.699219 C 272.445312 705.417969 260.65625 688.597656 255.5 678.640625 C 245.554688 658.339844 237.5625 635.703125 231.632812 611.402344 C 238.046875 602.507812 243.769531 594.664062 249.09375 587.484375 C 250.097656 592.078125 251.167969 596.710938 252.332031 601.378906 C 266.125 656.230469 285.875 693.320312 291.144531 702.640625 C 289.691406 705.976562 286.972656 708.910156 281.871094 707.699219 Z M 399.320312 712.589844 C 398.753906 713.304688 398.335938 714.074219 397.902344 714.828125 C 375.367188 714.460938 352.78125 711.660156 330.667969 706.320312 C 320.480469 703.902344 310.5 700.933594 300.894531 697.574219 C 296.667969 690.078125 278.839844 656.847656 265.457031 608.078125 C 312.09375 621.929688 357.605469 628.964844 401.492188 628.964844 C 420.351562 628.964844 438.890625 627.605469 457.109375 625.039062 C 451.96875 634.304688 446.734375 643.371094 441.398438 652.039062 C 408.046875 659.3125 372.011719 663.019531 334.164062 663.019531 C 333.054688 663.019531 332.050781 663.125 330.828125 663.007812 C 327.808594 663.007812 325.359375 665.445312 325.34375 668.460938 C 325.324219 671.496094 327.765625 673.964844 330.792969 673.980469 C 331.925781 673.984375 333.042969 673.992188 334.164062 673.992188 C 368.859375 673.992188 402.109375 670.945312 433.242188 664.941406 C 422.476562 681.589844 411.117188 697.601562 399.320312 712.589844 Z M 425.066406 716 C 422.292969 719.707031 419.457031 723.355469 416.65625 726.957031 C 415.214844 728.773438 412.929688 729.617188 410.839844 729.097656 C 410.007812 728.894531 409.296875 728.542969 408.664062 728.015625 C 407.464844 727.011719 406.730469 725.597656 406.566406 724.0625 C 406.503906 723.308594 406.566406 722.574219 406.855469 721.550781 C 407.003906 720.851562 407.382812 720.085938 407.929688 719.386719 C 422.542969 700.824219 436.53125 680.796875 449.5 659.859375 C 449.503906 659.855469 449.503906 659.847656 449.511719 659.84375 C 449.515625 659.832031 449.527344 659.816406 449.539062 659.804688 C 457.261719 647.359375 464.871094 634.15625 472.160156 620.539062 C 483.574219 599.042969 493.902344 576.941406 502.867188 554.851562 C 502.925781 554.730469 503.015625 554.636719 503.066406 554.519531 C 504.792969 550.210938 506.417969 545.890625 508.078125 541.566406 L 516.761719 550.792969 C 497.492188 599.898438 473.191406 646.339844 444.441406 688.835938 C 437.929688 698.472656 431.59375 707.347656 425.066406 716 Z M 452.984375 695.773438 C 472.988281 681.144531 490.195312 664.941406 504.15625 647.621094 C 519.5 641.320312 538.214844 631.449219 554.835938 621.902344 C 527.429688 657.214844 492.042969 684.515625 445.820312 706.085938 C 448.199219 702.71875 450.578125 699.316406 452.984375 695.773438 Z M 466.449219 708.175781 C 512.992188 683.820312 548.082031 652.828125 575.011719 612.675781 L 582.488281 620.617188 C 573.289062 632.214844 563.070312 643.25 551.929688 653.414062 C 549.691406 655.460938 549.53125 658.925781 551.578125 661.164062 C 552.660156 662.351562 554.144531 662.953125 555.632812 662.953125 C 556.949219 662.953125 558.277344 662.480469 559.328125 661.523438 C 570.496094 651.332031 580.777344 640.28125 590.082031 628.6875 L 602.03125 641.386719 C 563.097656 674.453125 516.109375 697.519531 466.449219 708.175781 Z M 602.253906 562.3125 C 612.382812 538.8125 620.546875 512.761719 626.476562 484.699219 C 632.824219 479.296875 638.972656 473.636719 644.984375 467.820312 C 640.558594 497.832031 633.203125 525.691406 623.003906 550.792969 C 621.863281 553.601562 623.210938 556.800781 626.019531 557.941406 C 626.699219 558.214844 627.398438 558.347656 628.082031 558.347656 C 630.25 558.347656 632.300781 557.050781 633.167969 554.921875 C 645.328125 524.984375 653.578125 491.332031 657.75 454.890625 C 660.804688 451.65625 663.816406 448.386719 666.753906 445.042969 C 666.640625 463.550781 662.910156 486.207031 655.496094 512.761719 C 654.683594 515.679688 656.386719 518.703125 659.300781 519.519531 C 659.792969 519.65625 660.292969 519.722656 660.78125 519.722656 C 663.183594 519.722656 665.382812 518.132812 666.066406 515.714844 C 674.78125 484.496094 678.617188 458.191406 677.601562 437.667969 C 680.15625 438.117188 682.71875 438.566406 685.285156 439.042969 C 687.105469 456.316406 684.648438 476.414062 677.847656 498.9375 C 676.96875 501.839844 678.617188 504.902344 681.511719 505.78125 C 682.039062 505.9375 682.574219 506.015625 683.101562 506.015625 C 685.457031 506.015625 687.632812 504.484375 688.351562 502.113281 C 695.148438 479.609375 697.890625 459.164062 696.550781 441.214844 C 700.335938 441.957031 704.121094 442.703125 707.933594 443.480469 C 706.496094 455.460938 704.375 467.496094 701.523438 479.339844 C 690.511719 525.179688 669.800781 566.558594 640.128906 602.542969 Z M 637.242188 662.789062 C 647.042969 657.539062 654.832031 649.976562 660.519531 640.199219 L 666.96875 647.050781 C 661.914062 657.453125 654.089844 664.71875 643.207031 669.128906 Z M 651.160156 677.574219 C 661.363281 672.613281 669.3125 665.214844 674.902344 655.472656 L 682.160156 663.179688 C 677.144531 672.703125 669.269531 679.914062 658.230469 685.085938 Z M 671.949219 699.65625 L 666.09375 693.429688 C 676.425781 687.972656 684.417969 680.621094 690.007812 671.511719 L 695.867188 677.730469 C 691.703125 686.773438 683.671875 694.121094 671.949219 699.65625 Z M 671.949219 699.65625 " fill-opacity="1" fill-rule="nonzero"/></g><path fill="#000000" d="M 405 0 C 365.527344 333.527344 333.527344 365.527344 0 405 C 0.695312 405.082031 1.375 405.164062 2.066406 405.246094 L 2.074219 405.253906 L 2.082031 405.246094 C 333.652344 444.609375 365.613281 477.167969 405 810 C 444.472656 476.472656 476.472656 444.472656 810 405 C 476.472656 365.527344 444.472656 333.527344 405 0 Z M 405 0 " fill-opacity="1" fill-rule="nonzero"/><path fill="#ffffff" d="M 603.015625 404.988281 C 602.953125 404.707031 602.859375 404.457031 602.765625 404.207031 C 602.671875 403.988281 602.609375 403.738281 602.484375 403.519531 C 602.359375 403.300781 602.171875 403.113281 602.015625 402.925781 C 601.859375 402.738281 601.703125 402.523438 601.488281 402.367188 C 601.300781 402.210938 601.082031 402.117188 600.863281 401.992188 C 600.613281 401.867188 600.394531 401.710938 600.113281 401.648438 C 600.050781 401.648438 599.988281 401.585938 599.925781 401.554688 L 450.886719 360.058594 L 409.394531 211.019531 C 409.394531 211.019531 409.332031 210.894531 409.300781 210.832031 C 409.207031 210.554688 409.082031 210.335938 408.925781 210.085938 C 408.800781 209.867188 408.707031 209.648438 408.550781 209.460938 C 408.394531 209.242188 408.175781 209.085938 407.957031 208.898438 C 407.769531 208.742188 407.613281 208.585938 407.394531 208.460938 C 407.175781 208.335938 406.929688 208.246094 406.679688 208.152344 C 406.429688 208.058594 406.210938 207.964844 405.960938 207.902344 C 405.898438 207.902344 405.835938 207.839844 405.742188 207.839844 C 405.554688 207.839844 405.335938 207.839844 405.148438 207.839844 C 404.960938 207.839844 404.742188 207.777344 404.558594 207.839844 C 404.496094 207.839844 404.433594 207.902344 404.339844 207.902344 C 404.089844 207.964844 403.871094 208.058594 403.652344 208.121094 C 403.402344 208.214844 403.121094 208.304688 402.902344 208.429688 C 402.714844 208.554688 402.558594 208.710938 402.371094 208.867188 C 402.15625 209.054688 401.9375 209.210938 401.78125 209.429688 C 401.625 209.617188 401.53125 209.835938 401.40625 210.054688 C 401.28125 210.304688 401.125 210.523438 401.03125 210.800781 C 401.03125 210.863281 400.96875 210.925781 400.9375 210.988281 L 359.441406 360.027344 L 210.402344 401.523438 C 210.402344 401.523438 210.277344 401.585938 210.21875 401.617188 C 209.96875 401.710938 209.71875 401.835938 209.46875 401.960938 C 209.25 402.085938 209.03125 402.179688 208.84375 402.335938 C 208.65625 402.492188 208.5 402.679688 208.3125 402.894531 C 208.15625 403.082031 207.96875 403.269531 207.847656 403.488281 C 207.722656 403.707031 207.660156 403.925781 207.566406 404.175781 C 207.472656 404.425781 207.347656 404.675781 207.316406 404.957031 C 207.316406 405.019531 207.253906 405.082031 207.253906 405.140625 C 207.253906 405.359375 207.253906 405.546875 207.253906 405.734375 C 207.253906 405.921875 207.191406 406.140625 207.253906 406.328125 C 207.253906 406.390625 207.316406 406.453125 207.316406 406.515625 C 207.378906 406.796875 207.472656 407.046875 207.566406 407.296875 C 207.660156 407.511719 207.722656 407.761719 207.847656 407.980469 C 207.96875 408.199219 208.15625 408.386719 208.3125 408.574219 C 208.46875 408.761719 208.625 408.980469 208.84375 409.136719 C 209.03125 409.292969 209.25 409.386719 209.46875 409.511719 C 209.71875 409.636719 209.9375 409.792969 210.21875 409.855469 C 210.277344 409.855469 210.339844 409.914062 210.402344 409.945312 L 359.441406 451.441406 L 400.9375 600.480469 C 400.9375 600.480469 401 600.605469 401.03125 600.667969 C 401.09375 600.886719 401.21875 601.042969 401.3125 601.261719 C 401.4375 601.511719 401.5625 601.761719 401.75 601.976562 C 401.875 602.132812 402.03125 602.289062 402.1875 602.414062 C 402.402344 602.601562 402.589844 602.789062 402.839844 602.945312 C 403.027344 603.070312 403.183594 603.132812 403.402344 603.226562 C 403.683594 603.351562 403.964844 603.445312 404.246094 603.507812 C 404.371094 603.507812 404.464844 603.601562 404.589844 603.632812 C 404.773438 603.632812 404.992188 603.664062 405.179688 603.664062 C 405.367188 603.664062 405.585938 603.664062 405.773438 603.632812 C 405.898438 603.632812 405.992188 603.539062 406.117188 603.507812 C 406.398438 603.445312 406.679688 603.351562 406.960938 603.226562 C 407.144531 603.132812 407.332031 603.039062 407.519531 602.945312 C 407.769531 602.789062 407.988281 602.601562 408.175781 602.414062 C 408.332031 602.257812 408.457031 602.132812 408.613281 601.976562 C 408.800781 601.761719 408.925781 601.511719 409.050781 601.261719 C 409.144531 601.074219 409.238281 600.886719 409.332031 600.667969 C 409.332031 600.605469 409.394531 600.542969 409.425781 600.480469 L 450.917969 451.441406 L 599.957031 409.945312 C 599.957031 409.945312 600.082031 409.886719 600.144531 409.855469 C 600.394531 409.761719 600.644531 409.636719 600.894531 409.511719 C 601.113281 409.386719 601.332031 409.292969 601.515625 409.136719 C 601.703125 408.980469 601.859375 408.792969 602.046875 408.574219 C 602.203125 408.386719 602.390625 408.199219 602.515625 407.980469 C 602.640625 407.761719 602.703125 407.542969 602.796875 407.296875 C 602.890625 407.046875 603.015625 406.796875 603.046875 406.515625 C 603.046875 406.453125 603.109375 406.390625 603.109375 406.328125 C 603.109375 406.109375 603.109375 405.921875 603.109375 405.734375 C 603.109375 405.546875 603.171875 405.328125 603.109375 405.140625 C 603.109375 405.078125 603.046875 405.019531 603.046875 404.957031 Z M 361.71875 443.019531 L 243.664062 410.164062 L 394.574219 410.164062 Z M 400.78125 395.191406 L 374.324219 368.734375 L 367.929688 362.335938 L 400.78125 244.308594 L 400.78125 395.222656 Z M 409.546875 567.253906 L 409.546875 416.34375 L 436.003906 442.800781 L 442.402344 449.195312 Z M 415.757812 401.398438 L 448.609375 368.546875 L 566.667969 401.398438 Z M 415.757812 401.398438 " fill-opacity="1" fill-rule="nonzero"/></svg>