<svg xmlns="http://www.w3.org/2000/svg" xmlns:xlink="http://www.w3.org/1999/xlink" width="1080" zoomAndPan="magnify" viewBox="0 0 810 809.999993" height="1080" preserveAspectRatio="xMidYMid meet" version="1.0"><defs><clipPath id="f7b2c33842"><path d="M 64 62 L 747 62 L 747 755.167969 L 64 755.167969 Z M 64 62 " clip-rule="nonzero"/></clipPath></defs><rect x="-81" width="972" fill="#ffffff" y="-80.999999" height="971.999992" fill-opacity="1"/><rect x="-81" width="972" fill="#ffffff" y="-80.999999" height="971.999992" fill-opacity="1"/><g clip-path="url(#f7b2c33842)"><path fill="#000000" d="M 738.851562 709.242188 L 646.988281 611.414062 C 678.164062 573.828125 699.882812 530.527344 711.378906 482.527344 C 714.734375 468.5625 717.171875 454.328125 718.621094 440.210938 C 722.152344 405.707031 720.027344 371.070312 712.324219 337.261719 C 712.8125 326.765625 715.964844 209.003906 620.257812 133.03125 C 522.652344 55.660156 415.890625 64.835938 407.925781 65.652344 C 392.210938 63.488281 377.128906 62.621094 363.105469 63.136719 C 287.359375 65.9375 231.5625 97.328125 211.535156 147.652344 L 193.960938 128.933594 C 192.167969 127.003906 149.605469 82.046875 116.132812 106.363281 C 92.316406 123.621094 88.710938 153.378906 106.238281 188.019531 C 108.546875 192.578125 112.757812 195.75 117.792969 196.714844 C 122.917969 197.695312 128.085938 196.289062 132.019531 192.828125 C 135.589844 189.652344 137.640625 185.132812 137.640625 180.421875 C 137.640625 178.3125 137.214844 176.160156 136.429688 174.257812 C 135.261719 171.335938 131.765625 161.554688 135.710938 158.328125 C 140.71875 154.296875 151.003906 162.75 153.378906 165.128906 L 173.414062 186.453125 C 161.378906 198.941406 150.339844 212.363281 140.640625 226.492188 C 140.609375 226.523438 140.554688 226.535156 140.527344 226.574219 C 140.304688 226.808594 140.203125 227.101562 140.035156 227.359375 C 117.910156 259.484375 102.0625 295.144531 92.914062 333.355469 C 91.214844 340.5625 89.773438 347.632812 88.613281 354.417969 C 79.730469 372.234375 72.09375 389.949219 65.929688 407.058594 C 62.703125 415.863281 67.15625 425.652344 76.179688 428.992188 L 77.550781 429.398438 C 78.847656 429.71875 80.15625 429.867188 81.449219 429.867188 C 82.613281 429.867188 83.761719 429.738281 84.886719 429.496094 C 85.054688 431.988281 85.191406 434.476562 85.40625 436.9375 C 80.5625 441.484375 70.242188 453.222656 75.359375 466.972656 C 77.277344 472.082031 80.371094 475.257812 83.757812 477.160156 C 79.269531 482.539062 76.882812 489.328125 79.539062 496.871094 C 81.816406 503.308594 85.53125 507.675781 90.574219 509.84375 C 90.875 509.976562 91.171875 510.011719 91.472656 510.121094 C 88.128906 515.628906 87.042969 522.042969 90.640625 528.554688 C 94.242188 535.121094 99.015625 537.484375 102.386719 538.3125 C 103.777344 538.652344 105.136719 538.796875 106.433594 538.796875 C 108.429688 538.796875 110.261719 538.449219 111.867188 537.984375 C 121.171875 558.820312 132.546875 578.601562 145.886719 596.773438 C 145.929688 596.847656 145.980469 596.90625 146.023438 596.972656 C 146.0625 597.023438 146.089844 597.078125 146.125 597.125 C 146.164062 597.179688 146.164062 597.242188 146.203125 597.292969 C 154.03125 607.878906 162.398438 617.835938 171.082031 627.027344 C 167.765625 634.371094 166.113281 645.824219 176.292969 653.742188 C 180.339844 656.875 184.421875 658.054688 188.21875 658.054688 C 192.816406 658.054688 196.964844 656.320312 200.117188 654.242188 C 214.59375 666.183594 230.054688 676.847656 246.210938 685.929688 C 249.707031 692.371094 263.210938 715.511719 279.027344 719.351562 C 280.785156 719.769531 282.441406 719.960938 283.996094 719.960938 C 291.601562 719.960938 296.855469 715.375 299.898438 709.851562 C 308.953125 712.921875 318.261719 715.707031 327.761719 717.972656 C 349.972656 723.351562 372.667969 726.210938 395.339844 726.722656 C 395.953125 730.96875 397.988281 734.765625 401.195312 737.445312 C 403.113281 739.050781 405.332031 740.171875 407.78125 740.765625 C 409.046875 741.078125 410.335938 741.230469 411.613281 741.230469 C 416.621094 741.230469 421.523438 738.898438 424.816406 734.734375 C 427.195312 731.65625 429.554688 728.574219 431.898438 725.476562 C 496.613281 719.367188 559.136719 692.757812 608.855469 650.257812 L 699.296875 746.605469 C 704.234375 751.890625 710.9375 754.921875 718.183594 755.148438 C 718.464844 755.152344 718.757812 755.15625 719.042969 755.15625 C 726.003906 755.15625 732.597656 752.539062 737.648438 747.753906 C 743.160156 742.628906 746.195312 735.578125 746.195312 727.90625 C 746.210938 720.882812 743.59375 714.253906 738.851562 709.242188 Z M 708.214844 433.0625 C 702.300781 431.855469 696.382812 430.640625 690.542969 429.535156 C 684.253906 428.320312 678.019531 427.210938 671.789062 426.164062 C 671.773438 426.15625 671.753906 426.167969 671.734375 426.164062 C 663.882812 424.757812 656.652344 423.574219 649.703125 422.582031 C 638.5 420.816406 627.242188 419.257812 616.261719 417.941406 C 600.148438 415.949219 583.421875 414.394531 566.527344 413.175781 C 567.476562 407.796875 568.351562 402.488281 569.15625 397.234375 C 583.367188 398.230469 598.023438 399.53125 612.949219 401.222656 C 613.15625 401.246094 613.363281 401.253906 613.570312 401.253906 C 616.324219 401.253906 618.695312 399.183594 619.007812 396.378906 C 619.347656 393.363281 617.183594 390.640625 614.179688 390.300781 C 599.386719 388.625 584.863281 387.335938 570.75 386.335938 C 571.535156 380.722656 572.234375 375.105469 572.855469 369.492188 C 632.632812 371.398438 675.355469 376.171875 675.792969 376.222656 C 676 376.242188 676.210938 376.253906 676.414062 376.253906 C 679.164062 376.253906 681.535156 374.183594 681.851562 371.375 C 682.191406 368.359375 680.027344 365.640625 677.027344 365.300781 C 676.589844 365.25 633.925781 360.484375 574.03125 358.539062 C 574.898438 349.6875 575.582031 340.953125 576.078125 332.410156 C 641.386719 334.476562 689.03125 340.691406 702.246094 342.570312 C 708.726562 372.332031 710.71875 402.722656 708.214844 433.0625 Z M 559.699219 518.460938 L 547.652344 505.632812 C 580.957031 487.601562 613.867188 464.625 650.453125 433.804688 C 653.679688 434.28125 656.980469 434.792969 660.359375 435.355469 C 647.097656 450.757812 632.664062 465.199219 617.199219 478.257812 C 599.671875 493.183594 580.3125 506.652344 559.699219 518.460938 Z M 611.894531 496.660156 C 606.914062 517.183594 600.6875 536.457031 593.324219 554.265625 L 567.398438 526.660156 C 583.035156 517.570312 597.945312 507.550781 611.894531 496.660156 Z M 414.417969 602.371094 C 414.511719 602.371094 414.597656 602.371094 414.691406 602.367188 C 434.5 601.394531 454.324219 598.050781 473.816406 592.660156 C 470.394531 599.753906 466.871094 606.804688 463.203125 613.792969 C 400.003906 624.171875 332.347656 618.347656 262.015625 596.488281 C 260.777344 591.363281 259.648438 586.292969 258.609375 581.28125 C 284.023438 584.402344 308.917969 586.039062 333.195312 586.039062 C 387.929688 586.039062 439.582031 578.019531 487.632812 562.230469 C 485.191406 567.976562 482.664062 573.707031 480.050781 579.433594 C 458.417969 586.234375 436.265625 590.296875 414.160156 591.386719 C 411.136719 591.535156 408.808594 594.117188 408.953125 597.144531 C 409.09375 600.085938 411.511719 602.371094 414.417969 602.371094 Z M 261.945312 570.648438 C 268.667969 561.710938 276.058594 552.058594 284.605469 541.046875 C 293.394531 541.433594 302.050781 541.652344 310.550781 541.652344 C 371.480469 541.652344 425.417969 531.664062 478.097656 510.945312 L 487.667969 521.140625 C 449.285156 535.691406 408.066406 545.355469 361.882812 550.496094 C 358.875 550.832031 356.710938 553.546875 357.039062 556.5625 C 357.351562 559.371094 359.722656 561.453125 362.480469 561.453125 C 362.683594 561.453125 362.886719 561.441406 363.09375 561.417969 C 411.902344 555.984375 455.34375 545.609375 495.804688 529.808594 L 499.199219 533.429688 C 497.277344 538.578125 495.292969 543.703125 493.25 548.816406 C 423.660156 573.363281 345.894531 580.691406 261.945312 570.648438 Z M 510.480469 331.921875 C 517.453125 331.761719 524.183594 331.714844 530.910156 331.71875 C 530.941406 331.71875 530.96875 331.734375 531.003906 331.734375 C 531.03125 331.734375 531.058594 331.71875 531.085938 331.71875 C 534.914062 331.71875 538.761719 331.742188 542.632812 331.769531 C 542.125 340.460938 541.429688 349.183594 540.535156 357.890625 C 507.378906 357.539062 475.722656 358.324219 445.984375 360.171875 C 455.5625 350.871094 465.144531 341.753906 474.621094 333.054688 C 486.375 332.519531 498.109375 332.148438 510.480469 331.921875 Z M 487.34375 321.5625 C 491.929688 317.441406 496.535156 313.375 501.171875 309.328125 C 502.066406 313.25 502.902344 317.167969 503.6875 321.101562 C 498.164062 321.226562 492.691406 321.375 487.34375 321.5625 Z M 510.535156 301.21875 C 513.1875 298.949219 515.867188 296.71875 518.535156 294.480469 C 519.765625 299.207031 520.933594 303.9375 521.929688 308.617188 C 522.871094 312.839844 523.671875 316.835938 524.421875 320.78125 C 521.246094 320.796875 518.046875 320.832031 514.820312 320.886719 C 513.539062 314.320312 512.105469 307.75 510.535156 301.21875 Z M 554.269531 265.402344 C 557.9375 262.527344 561.644531 259.714844 565.339844 256.882812 C 566.039062 268.625 566.402344 281.101562 566.402344 294.972656 C 566.402344 295.023438 566.375 295.066406 566.375 295.117188 C 566.375 295.160156 566.394531 295.199219 566.402344 295.242188 C 566.339844 306.355469 566.039062 316.566406 565.476562 326.496094 C 564.898438 338.324219 563.933594 350.617188 562.621094 363.027344 C 562.605469 363.121094 562.550781 363.195312 562.539062 363.289062 C 561.617188 372.332031 560.46875 381.507812 559.113281 390.566406 C 557.828125 399.34375 556.378906 408.050781 554.710938 417.171875 C 551.398438 434.957031 547.515625 452.289062 543.175781 468.710938 C 543.175781 468.722656 543.171875 468.734375 543.164062 468.738281 C 541.007812 477.0625 538.652344 485.304688 536.214844 493.457031 L 527.191406 483.851562 C 530.335938 472.902344 533.1875 462.234375 535.609375 452.132812 C 535.609375 452.125 535.609375 452.121094 535.617188 452.113281 C 535.632812 452.039062 535.65625 451.960938 535.675781 451.882812 C 536.980469 446.296875 538.269531 440.703125 539.414062 435.117188 C 539.441406 435.011719 539.507812 434.9375 539.527344 434.832031 C 540.746094 429.230469 541.851562 423.6875 542.898438 418.050781 C 544.679688 408.726562 546.21875 399.628906 547.484375 391.011719 C 548.820312 381.925781 549.988281 372.839844 550.957031 364.003906 C 552.332031 351.578125 553.339844 338.988281 553.941406 326.632812 C 554.414062 318.464844 554.710938 309.746094 554.828125 300.730469 C 554.988281 288.929688 554.773438 277.070312 554.269531 265.402344 Z M 557.125 458.265625 C 559.820312 447.164062 562.285156 435.707031 564.53125 424.042969 C 577.113281 424.933594 589.511719 426.085938 601.714844 427.414062 C 586.550781 438.816406 571.785156 449.039062 557.125 458.265625 Z M 617.5625 429.183594 C 623.609375 429.925781 629.722656 430.75 635.882812 431.640625 C 604.8125 457.238281 576.316406 477.136719 547.777344 493.074219 C 549.667969 486.628906 551.488281 480.148438 553.203125 473.621094 C 574.339844 460.886719 595.4375 446.324219 617.5625 429.183594 Z M 550.605469 588.1875 C 546.007812 590.160156 541.367188 592.054688 536.644531 593.867188 C 538.664062 589.121094 540.5625 584.28125 542.273438 579.3125 Z M 535.566406 320.757812 C 534.984375 317.621094 534.351562 314.414062 533.664062 311.152344 C 536.996094 310.070312 540.339844 309.027344 543.707031 308.03125 C 543.597656 312.394531 543.445312 316.644531 543.246094 320.796875 C 540.710938 320.78125 538.148438 320.769531 535.566406 320.757812 Z M 531.265625 300.382812 C 530.207031 295.847656 529.058594 291.292969 527.792969 286.726562 C 533.207031 282.222656 538.441406 277.953125 543.578125 273.851562 C 543.808594 281.386719 543.917969 288.957031 543.867188 296.550781 C 539.648438 297.753906 535.445312 299.039062 531.265625 300.382812 Z M 539.351562 368.871094 C 538.738281 374.058594 538.058594 379.289062 537.320312 384.5625 C 496.417969 383.042969 456.308594 384.230469 417.824219 388.132812 C 423.167969 382.675781 428.53125 377.265625 433.921875 371.941406 C 466.660156 369.515625 502.121094 368.5 539.351562 368.871094 Z M 535.6875 395.5 C 534.871094 400.671875 533.96875 405.96875 532.96875 411.398438 C 482.992188 409.613281 434.496094 412.136719 388.464844 418.90625 C 394.316406 412.605469 400.125 406.4375 405.828125 400.507812 C 447.394531 395.566406 491.035156 393.894531 535.6875 395.5 Z M 530.871094 422.324219 C 530.472656 424.367188 530.066406 426.425781 529.640625 428.464844 C 511.433594 429.679688 493.511719 431.128906 476.359375 432.808594 C 458.765625 434.480469 441.113281 436.445312 422.339844 438.824219 C 415.484375 439.757812 408.679688 440.695312 402.039062 441.628906 C 393.839844 442.785156 385.753906 444 377.917969 445.265625 C 372.851562 446.050781 367.617188 446.902344 362.171875 447.820312 C 366.933594 442.445312 371.699219 437.121094 376.472656 431.882812 C 425.257812 423.722656 477.097656 420.53125 530.871094 422.324219 Z M 382.152344 489.777344 C 382.699219 489.949219 383.25 490.03125 383.796875 490.03125 C 386.125 490.03125 388.285156 488.527344 389.023438 486.179688 C 392.578125 474.824219 397.925781 464.214844 406.035156 452.167969 C 410.964844 451.484375 415.960938 450.789062 420.984375 450.105469 L 450.449219 481.492188 C 419.261719 492.660156 389.429688 499.128906 359.734375 501.144531 C 364.488281 484.980469 371.820312 470.0625 381.917969 455.769531 C 385.132812 455.257812 388.367188 454.746094 391.640625 454.25 C 385.78125 464.007812 381.621094 473.15625 378.570312 482.894531 C 377.660156 485.789062 379.265625 488.871094 382.152344 489.777344 Z M 367.203125 458.125 C 358.65625 471.871094 352.398438 486.261719 348.230469 501.722656 C 337.757812 502.023438 327.230469 501.777344 316.777344 500.933594 C 328.222656 487.046875 339.5625 473.644531 350.601562 460.988281 C 356.398438 459.953125 361.902344 459.003906 367.203125 458.125 Z M 339.988281 512.871094 C 344.148438 512.871094 348.3125 512.777344 352.457031 512.609375 C 352.457031 512.609375 352.457031 512.609375 352.464844 512.609375 C 352.46875 512.609375 352.464844 512.609375 352.46875 512.609375 C 352.546875 512.601562 352.617188 512.609375 352.695312 512.601562 C 387.421875 511.113281 422.125 503.746094 458.636719 490.210938 L 470.019531 502.335938 C 415.019531 523.335938 358.34375 532.335938 293.011719 530.371094 C 297.847656 524.234375 302.960938 517.855469 308.421875 511.132812 C 318.878906 512.246094 329.441406 512.871094 339.988281 512.871094 Z M 488.558594 442.703125 C 501.210938 441.554688 514.160156 440.535156 527.183594 439.640625 C 526.636719 442.09375 526.109375 444.554688 525.546875 447 C 518.523438 450.910156 511.132812 454.796875 503.5 458.617188 Z M 521.953125 461.453125 C 520.839844 465.734375 519.65625 470.089844 518.429688 474.511719 L 511.328125 466.953125 C 514.921875 465.128906 518.480469 463.304688 521.953125 461.453125 Z M 524.460938 560.335938 L 533.691406 570.167969 C 530.394531 580.71875 526.378906 590.859375 521.652344 600.335938 C 514.714844 614.507812 506.109375 627.984375 496.039062 640.425781 C 488.828125 649.519531 480.660156 658.285156 471.652344 666.679688 C 491.933594 633.125 509.621094 597.5 524.460938 560.335938 Z M 529.953125 608.097656 C 539.714844 604.664062 549.308594 600.816406 558.609375 596.707031 L 565.027344 603.542969 C 551.152344 612.058594 533.402344 622.214844 516.945312 630.339844 C 521.722656 623.160156 526.074219 615.734375 529.953125 608.097656 Z M 576.34375 248.5 C 588.007812 239.730469 600.15625 230.984375 612.5625 222.402344 C 621.90625 230.605469 630.921875 239.273438 639.453125 248.371094 C 618.210938 247.613281 597.074219 247.652344 576.34375 248.5 Z M 649.742188 259.75 C 656.320312 267.359375 662.585938 275.195312 668.445312 283.183594 C 638.433594 280.8125 607.867188 282.613281 577.308594 288.484375 C 577.226562 278.15625 576.9375 268.550781 576.449219 259.484375 C 600.386719 258.496094 624.90625 258.566406 649.742188 259.75 Z M 576.695312 321.441406 C 577.019531 314.457031 577.222656 307.25 577.304688 299.664062 C 611.089844 292.933594 643.703125 291.398438 676.761719 295.007812 C 687.089844 310.320312 693.867188 322.988281 697.703125 330.855469 C 678.863281 328.378906 634.652344 323.292969 576.695312 321.441406 Z M 613.457031 141.65625 C 659.074219 177.863281 681.136719 224.058594 691.773438 262.484375 C 649.023438 165.246094 553.289062 106.035156 469.160156 79.613281 C 509 85.703125 562.949219 101.613281 613.457031 141.65625 Z M 363.5 74.113281 C 377.183594 73.617188 391.933594 74.476562 407.371094 76.644531 C 496.039062 88.875 625.65625 147.363281 679.0625 261.203125 C 650 213.546875 607.5625 173.09375 552.074219 140.457031 C 549.472656 138.917969 546.113281 139.804688 544.574219 142.417969 C 543.046875 145.035156 543.917969 148.402344 546.53125 149.941406 C 599.972656 181.375 640.898438 220.222656 669.027344 265.878906 C 664.972656 260.75 660.804688 255.679688 656.46875 250.730469 C 656.433594 250.683594 656.378906 250.667969 656.332031 250.625 C 656.324219 250.613281 656.304688 250.601562 656.292969 250.589844 C 644.011719 236.589844 630.632812 223.34375 616.523438 211.230469 C 609.402344 205.105469 601.835938 199.058594 594.03125 193.238281 C 583.90625 185.730469 574.121094 179.121094 564.121094 173.039062 C 564.050781 172.988281 564.011719 172.914062 563.933594 172.863281 C 555.410156 167.640625 546.492188 162.585938 537.414062 157.84375 C 524.363281 151.042969 510.535156 144.738281 496.296875 139.089844 C 496.21875 139.058594 496.136719 139.03125 496.058594 139.003906 C 496.054688 139.003906 496.042969 138.996094 496.039062 138.996094 C 493.289062 137.917969 490.542969 136.886719 487.738281 135.859375 C 485.84375 135.132812 483.945312 134.410156 482.050781 133.753906 C 470.097656 129.5 458.464844 125.867188 447.480469 122.964844 C 447.460938 122.960938 447.4375 122.964844 447.410156 122.960938 C 430.722656 118.472656 413.925781 115.101562 397.476562 112.941406 C 384.113281 111.203125 370.585938 110.265625 357.269531 110.148438 C 357.253906 110.148438 357.234375 110.148438 357.21875 110.148438 C 357.214844 110.148438 357.207031 110.148438 357.203125 110.148438 C 357.199219 110.148438 357.191406 110.148438 357.191406 110.148438 C 338.125 110.09375 319.375 111.703125 301.722656 115.066406 C 301.710938 115.066406 301.699219 115.074219 301.6875 115.074219 C 301.671875 115.078125 301.65625 115.078125 301.640625 115.078125 C 279.585938 119.242188 261.464844 125.511719 247.3125 131.789062 C 277.457031 109.179688 318.25 96.59375 369.238281 94.378906 C 372.265625 94.246094 374.605469 91.679688 374.476562 88.652344 C 374.347656 85.621094 371.832031 83.320312 368.769531 83.402344 C 312.863281 85.835938 268.460938 100.339844 236.128906 126.546875 C 260.878906 94.957031 305.296875 76.265625 363.5 74.113281 Z M 581.285156 197.558594 C 577.894531 199.871094 574.535156 202.199219 571.171875 204.550781 C 570.410156 199.222656 569.589844 194.046875 568.71875 188.960938 C 572.894531 191.699219 577.074219 194.550781 581.285156 197.558594 Z M 561.082031 211.621094 C 557.492188 214.167969 553.9375 216.773438 550.375 219.367188 C 548.496094 203.835938 545.964844 188.410156 542.796875 173.277344 C 547.328125 175.804688 551.789062 178.378906 556.148438 181.023438 C 558.019531 190.828125 559.640625 200.90625 561.082031 211.621094 Z M 238.503906 491.804688 C 238.410156 504.703125 238.96875 517.667969 240.074219 530.414062 C 233.988281 538.351562 227.800781 546.601562 221.601562 554.996094 C 212.101562 463.640625 229.160156 365.203125 268.113281 287.320312 L 285.382812 305.714844 C 279.078125 318.039062 273.089844 330.917969 267.65625 344.21875 C 266.160156 347.941406 264.71875 351.609375 263.335938 355.320312 C 257.914062 369.765625 253.296875 384.824219 249.613281 400.0625 C 247.132812 410.238281 245.054688 420.457031 243.445312 430.441406 C 241.785156 440.929688 240.550781 451.371094 239.785156 461.457031 C 239.777344 461.550781 239.773438 461.640625 239.769531 461.726562 C 239.769531 461.726562 239.769531 461.734375 239.769531 461.734375 C 238.933594 472.023438 238.507812 482.042969 238.507812 491.476562 C 238.507812 491.523438 238.480469 491.570312 238.480469 491.617188 C 238.46875 491.683594 238.503906 491.738281 238.503906 491.804688 Z M 212.050781 567.988281 C 208.210938 573.277344 204.390625 578.679688 200.5625 584.039062 C 189.03125 466.914062 207.566406 362.746094 255.734375 274.085938 L 260.121094 278.757812 C 217.257812 362.367188 199.347656 469.945312 212.050781 567.988281 Z M 438.6875 162.425781 C 441.121094 161.273438 443.585938 160.175781 446.078125 159.097656 C 464.492188 180 479.433594 201.441406 491.53125 224.34375 C 488.625 224.691406 485.78125 225.070312 482.992188 225.46875 C 470.96875 201.902344 456.097656 180.746094 438.6875 162.425781 Z M 471.546875 227.210938 C 465.277344 228.195312 459.066406 229.308594 452.941406 230.574219 C 452.175781 216.378906 449.375 201.535156 444.511719 185.789062 C 454.664062 198.472656 463.699219 212.324219 471.546875 227.210938 Z M 442.074219 232.84375 C 438.042969 233.722656 434.152344 234.636719 430.402344 235.589844 C 422.707031 218.386719 415.933594 199.632812 409.84375 178.53125 C 415.453125 174.941406 421.089844 171.632812 426.734375 168.578125 C 436.195312 192.019531 441.242188 213.148438 442.074219 232.84375 Z M 456.828125 154.734375 C 471.460938 149.3125 481.832031 147.265625 485.277344 146.675781 C 486.953125 147.292969 488.613281 147.921875 490.269531 148.5625 C 500.242188 169.359375 506.804688 194.21875 509.839844 222.523438 C 507.632812 222.707031 505.429688 222.898438 503.25 223.117188 C 490.941406 199.035156 475.691406 176.5625 456.828125 154.734375 Z M 445.480469 147.375 C 439.148438 149.988281 432.925781 152.867188 427 155.910156 C 418.148438 160.4375 409.195312 165.679688 400.398438 171.492188 C 400.324219 171.539062 400.289062 171.617188 400.214844 171.671875 C 394.539062 175.402344 388.632812 179.660156 382.160156 184.703125 C 382.152344 184.707031 382.148438 184.714844 382.140625 184.71875 C 382.113281 184.742188 382.085938 184.757812 382.058594 184.777344 C 374.761719 190.527344 368.050781 196.28125 361.535156 202.390625 C 344.476562 218.386719 328.714844 236.890625 314.464844 257.265625 L 297.539062 239.246094 C 356.199219 160.980469 434.4375 137.144531 446 133.980469 C 452.492188 135.722656 459.253906 137.789062 466.152344 140.03125 C 460.324219 141.765625 453.363281 144.132812 445.480469 147.375 Z M 330.5625 274.40625 L 322.113281 265.40625 C 334.382812 247.636719 347.894531 231.441406 362.371094 217.027344 C 365.75 229.675781 369.714844 242.003906 374.210938 253.859375 C 359.511719 259.78125 344.875 266.664062 330.5625 274.40625 Z M 378.261719 264.074219 C 380.886719 270.484375 383.746094 276.910156 386.832031 283.328125 C 374.816406 287.710938 363.234375 292.460938 352.261719 297.511719 L 338.351562 282.699219 C 351.46875 275.71875 364.835938 269.476562 378.261719 264.074219 Z M 310.683594 332.652344 L 317.703125 340.128906 C 309.003906 341.847656 300.285156 343.738281 291.578125 345.789062 C 297.734375 341.222656 304.132812 336.855469 310.683594 332.652344 Z M 281.625 339.585938 C 285.363281 330.921875 289.285156 322.460938 293.398438 314.246094 L 303.046875 324.523438 C 295.660156 329.324219 288.511719 334.351562 281.625 339.585938 Z M 289.917969 231.121094 L 274.683594 214.894531 C 283.933594 203.230469 293.644531 192.371094 303.671875 182.652344 C 314.210938 172.414062 325.257812 163.167969 336.503906 155.175781 C 355.976562 141.316406 376.457031 130.855469 397.394531 124.039062 C 406.816406 125.3125 416.355469 127.03125 425.929688 129.101562 C 396.21875 140.347656 337.074219 169.03125 289.917969 231.121094 Z M 297.359375 173.535156 C 288.964844 174.714844 280.4375 176.214844 271.816406 178.011719 C 278.457031 172.539062 285.125 167.292969 291.777344 162.332031 C 299.070312 161.070312 306.421875 159.90625 313.796875 158.839844 C 308.214844 163.46875 302.730469 168.382812 297.359375 173.535156 Z M 331.320312 145.425781 C 324.972656 146.191406 318.601562 147.042969 312.234375 147.960938 C 327.625 137.710938 343.074219 128.707031 358.382812 121.1875 C 363.175781 121.246094 368 121.476562 372.835938 121.753906 C 358.640625 128.070312 344.746094 135.976562 331.320312 145.425781 Z M 286.304688 152.707031 C 273.324219 162.332031 260.273438 172.992188 247.5 184.398438 L 246.710938 185.109375 L 238.898438 176.792969 C 260.328125 157.460938 282.429688 140.253906 304.734375 125.707031 C 314.035156 123.972656 323.652344 122.769531 333.464844 122.027344 C 317.71875 130.9375 301.929688 141.140625 286.304688 152.707031 Z M 284.371094 186.773438 C 278.464844 193.125 272.695312 199.820312 267.097656 206.820312 L 254.433594 193.339844 C 264.503906 190.734375 274.507812 188.554688 284.371094 186.773438 Z M 261.714844 502.511719 C 257.652344 507.636719 253.820312 512.519531 250.171875 517.21875 C 249.839844 511.1875 249.652344 505.144531 249.585938 499.074219 C 253.589844 500.292969 257.652344 501.445312 261.714844 502.511719 Z M 258.890625 490.433594 C 264.9375 487.628906 271.28125 484.980469 277.832031 482.421875 C 274.78125 486.164062 271.949219 489.679688 269.203125 493.105469 C 265.742188 492.25 262.285156 491.386719 258.890625 490.433594 Z M 249.652344 482.703125 C 249.800781 477.203125 250.066406 471.589844 250.484375 465.820312 C 269.007812 458.773438 288.019531 452.519531 307.261719 447.164062 C 301.628906 453.734375 296.472656 459.839844 291.632812 465.683594 C 276.367188 470.847656 262.546875 476.472656 249.652344 482.703125 Z M 251.542969 453.722656 C 252.148438 447.675781 252.894531 441.578125 253.816406 435.417969 C 273.992188 428.277344 295.089844 421.929688 316.613281 416.589844 C 323.929688 414.792969 331.292969 413.144531 338.65625 411.578125 C 332.296875 418.585938 326.050781 425.558594 320.042969 432.410156 C 296.839844 438.25 273.871094 445.433594 251.542969 453.722656 Z M 313.992188 405.917969 C 294.144531 410.847656 274.6875 416.636719 255.925781 423.074219 C 257.007812 417.285156 258.21875 411.46875 259.59375 405.625 C 288.105469 396 315.832031 388.53125 342.023438 383.523438 C 350.78125 381.871094 359.816406 380.40625 368.9375 379.039062 C 363.390625 384.847656 357.539062 391.054688 351.25 397.804688 C 338.882812 400.171875 326.371094 402.882812 313.992188 405.917969 Z M 339.976562 372.726562 C 315.339844 377.441406 289.371094 384.339844 262.734375 393.058594 C 265.59375 382.457031 268.921875 372.007812 272.644531 361.839844 C 291.464844 356.824219 310.558594 352.5 329.46875 349.027344 C 339.398438 347.167969 348.808594 345.578125 358.25 344.179688 C 365.925781 343.03125 373.546875 341.9375 381.113281 341.007812 C 381.113281 341.007812 381.117188 341.007812 381.117188 341.007812 C 381.125 341.007812 381.128906 341.007812 381.128906 341.007812 C 391.449219 339.707031 400.996094 338.628906 410.175781 337.710938 C 400.496094 347.066406 390.863281 356.550781 381.40625 366.15625 C 367.3125 368.003906 353.378906 370.199219 339.976562 372.726562 Z M 382.542969 329.761719 L 360.195312 305.964844 C 370.25 301.449219 380.800781 297.1875 391.71875 293.230469 C 397.5 304.488281 403.953125 315.652344 411.007812 326.578125 C 402.074219 327.457031 392.640625 328.515625 382.542969 329.761719 Z M 399.261719 283.976562 C 394.429688 274.339844 390.085938 264.589844 386.332031 254.964844 C 386.328125 254.949219 386.316406 254.929688 386.3125 254.914062 C 380.433594 240.082031 375.453125 224.394531 371.421875 208.257812 C 374.960938 205.011719 378.609375 201.84375 382.355469 198.726562 C 394.703125 245.109375 411.695312 283.304688 434.117188 315.039062 C 430.476562 318.414062 426.832031 321.796875 423.210938 325.199219 C 414.269531 311.765625 406.199219 297.933594 399.261719 283.976562 Z M 391.691406 191.261719 C 394.667969 189 397.546875 186.878906 400.320312 184.925781 C 406.769531 206.753906 413.914062 226.265625 422.148438 244.082031 C 422.179688 244.160156 422.207031 244.230469 422.246094 244.300781 C 422.25 244.316406 422.261719 244.335938 422.269531 244.351562 C 427.121094 254.921875 432.539062 265.214844 438.378906 274.925781 C 443.09375 282.8125 448.21875 290.308594 453.546875 297.472656 C 449.777344 300.8125 446.027344 304.1875 442.296875 307.582031 C 420.273438 276.082031 403.65625 237.941406 391.691406 191.261719 Z M 451.875 275.707031 C 463.378906 273.046875 475.109375 270.691406 487.007812 268.679688 C 478.65625 275.628906 470.226562 282.816406 461.792969 290.183594 C 458.363281 285.523438 455.058594 280.695312 451.875 275.707031 Z M 445.832031 265.824219 C 442.050781 259.335938 438.5 252.613281 435.160156 245.71875 C 439.542969 244.636719 444.046875 243.585938 448.925781 242.578125 C 459.269531 240.261719 469.9375 238.347656 480.738281 236.875 C 487.125 235.875 493.617188 235.0625 500.679688 234.375 C 505.863281 233.78125 511.042969 233.347656 516.316406 232.96875 C 521.738281 232.546875 527.375 232.214844 533.269531 231.964844 C 523.75 239.152344 514.003906 246.757812 503.769531 254.957031 C 484.0625 257.699219 464.613281 261.359375 445.832031 265.824219 Z M 520.761719 221.644531 C 518.113281 196.714844 512.804688 174.285156 504.917969 154.703125 C 513.542969 158.433594 521.996094 162.339844 530.109375 166.503906 C 534.136719 184.148438 537.265625 202.296875 539.507812 220.746094 C 532.921875 220.949219 526.707031 221.25 520.761719 221.644531 Z M 275.027344 133.089844 C 260.265625 143.972656 245.675781 155.890625 231.386719 168.789062 L 221.832031 158.613281 C 229.675781 153.050781 247.601562 141.808594 275.027344 133.089844 Z M 215.480469 231.238281 L 232.890625 249.773438 C 212.730469 257.945312 193.222656 268.023438 174.5625 279.894531 C 187.332031 263.054688 201.011719 246.773438 215.480469 231.238281 Z M 124.300781 386.242188 C 121.320312 385.671875 118.460938 387.644531 117.902344 390.625 C 116.3125 399.101562 115.199219 407.511719 114.433594 416.023438 C 106.402344 421.078125 100.1875 425.390625 95.8125 428.609375 C 95.667969 426.453125 95.464844 424.324219 95.363281 422.167969 C 96.132812 421.011719 96.796875 419.800781 97.214844 418.554688 C 103.628906 400.679688 111.675781 382.347656 121.117188 364.058594 C 130.105469 354.539062 139.863281 345.492188 150.191406 336.945312 C 143.042969 358.242188 137.410156 380.992188 133.394531 404.859375 C 130.988281 406.1875 128.585938 407.523438 126.191406 408.914062 C 126.859375 403.558594 127.648438 398.148438 128.675781 392.664062 C 129.226562 389.675781 127.269531 386.800781 124.300781 386.242188 Z M 166.359375 324.332031 C 176.117188 317.183594 186.476562 310.398438 197.332031 303.992188 C 179.859375 326.890625 164.929688 357.742188 153.949219 394.097656 C 151.214844 395.445312 148.492188 396.796875 145.78125 398.195312 C 150.695312 371.9375 157.539062 347.101562 166.359375 324.332031 Z M 207.078125 309.304688 C 206.902344 309.71875 206.714844 310.117188 206.539062 310.53125 C 197.304688 332.796875 189.417969 356.417969 183.03125 380.730469 C 177.601562 383.042969 172.414062 385.335938 167.503906 387.597656 C 177.992188 355.929688 191.542969 329.207031 207.078125 309.304688 Z M 158.550781 316.402344 C 151.847656 321.347656 145.402344 326.566406 139.128906 331.917969 C 144.253906 323.425781 149.621094 314.984375 155.257812 306.652344 C 178.527344 288.957031 203.472656 274.351562 229.589844 263.050781 C 226.707031 268.21875 223.941406 273.421875 221.292969 278.636719 C 198.601562 289.726562 177.480469 302.410156 158.550781 316.402344 Z M 180.925781 194.453125 L 189.527344 203.609375 C 180.5 207.296875 171.492188 211.246094 162.535156 215.445312 C 168.332031 208.1875 174.46875 201.175781 180.925781 194.453125 Z M 148.410156 234.554688 C 159.339844 228.957031 170.441406 223.738281 181.589844 218.882812 C 153.675781 250.171875 128.902344 283.925781 108.335938 318.519531 C 117.363281 288.5625 130.78125 260.390625 148.410156 234.554688 Z M 80.425781 418.792969 L 79.660156 418.570312 C 76.613281 417.441406 75.070312 413.972656 76.230469 410.816406 C 82.339844 393.855469 89.921875 376.292969 98.757812 358.625 C 123.949219 308.476562 158.980469 258.917969 200.140625 214.898438 L 207.957031 223.222656 C 185.519531 247.269531 164.886719 272.945312 146.703125 299.71875 C 133.726562 318.84375 121.992188 338.515625 111.832031 358.179688 C 111.808594 358.226562 111.765625 358.246094 111.742188 358.292969 C 101.917969 377.25 93.5625 396.273438 86.859375 414.957031 C 86.640625 415.609375 86.261719 416.246094 85.632812 416.917969 C 84.238281 418.511719 82.148438 419.203125 80.425781 418.792969 Z M 121.566406 532.820312 C 126.226562 529.683594 130.945312 526.601562 135.710938 523.574219 C 135.964844 538.753906 137.121094 553.183594 139.207031 566.734375 C 132.664062 555.835938 126.757812 544.519531 121.566406 532.820312 Z M 138.28125 508.964844 C 129.253906 514.519531 120.257812 520.355469 111.636719 526.242188 C 110.675781 526.859375 107.601562 528.304688 104.960938 527.628906 C 103.152344 527.167969 101.613281 525.734375 100.242188 523.246094 C 96.839844 517.082031 105.457031 510.457031 107.535156 508.976562 C 107.605469 508.933594 107.6875 508.917969 107.765625 508.867188 C 126.558594 496.210938 146.125 484.554688 166.015625 473.988281 C 165.339844 480.636719 164.765625 487.238281 164.335938 493.765625 C 155.9375 498.398438 147.410156 503.351562 138.28125 508.964844 Z M 155.664062 591.589844 C 149.617188 569.675781 146.597656 544.507812 146.636719 516.757812 C 152.480469 513.191406 158.113281 509.894531 163.613281 506.769531 C 161.917969 542.828125 163.675781 577.292969 168.769531 608.046875 C 164.273438 602.761719 159.894531 597.269531 155.664062 591.589844 Z M 167.464844 460.792969 C 145.15625 472.320312 123.203125 485.285156 102.183594 499.40625 C 101.53125 499.683594 97.949219 501.0625 94.90625 499.75 C 92.78125 498.832031 91.089844 496.628906 89.878906 493.199219 C 87.457031 486.324219 95.464844 480.742188 98.597656 478.878906 C 98.660156 478.851562 98.699219 478.800781 98.757812 478.773438 C 98.945312 478.6875 99.140625 478.644531 99.324219 478.53125 C 99.617188 478.351562 127.664062 461.476562 170.179688 441.648438 C 169.214844 447.792969 168.316406 454.140625 167.464844 460.792969 Z M 172.433594 428.519531 C 129.679688 448.054688 99.765625 465.503906 94.554688 468.589844 C 92.183594 468.914062 87.730469 468.703125 85.632812 463.113281 C 82.027344 453.445312 94.304688 443.710938 94.664062 443.417969 C 94.757812 443.335938 103.957031 435.386719 122.429688 423.953125 C 128.484375 420.214844 134.703125 416.605469 140.921875 413.226562 C 147.667969 409.539062 154.203125 406.160156 160.941406 402.886719 C 166.644531 400.0625 172.910156 397.152344 179.585938 394.207031 C 176.894531 405.316406 174.511719 416.8125 172.433594 428.519531 Z M 175.046875 497.445312 C 175.695312 486.796875 176.679688 475.867188 177.972656 464.996094 C 179.367188 453.777344 180.882812 443.488281 182.605469 433.550781 C 182.625 433.457031 182.6875 433.382812 182.703125 433.289062 C 185.507812 417.039062 188.9375 401.191406 192.910156 386.148438 C 199.292969 361.375 207.285156 337.351562 216.652344 314.773438 C 220.886719 304.640625 225.429688 294.726562 230.160156 285.304688 C 230.1875 285.253906 230.222656 285.222656 230.246094 285.171875 C 234.316406 277.054688 238.792969 268.976562 243.445312 261 L 247.816406 265.65625 C 195.550781 360.105469 176.402344 471.714844 190.929688 597.554688 C 187.484375 602.460938 184.054688 607.460938 180.625 612.4375 C 174.335938 578.210938 172.386719 538.789062 175.046875 497.445312 Z M 195.933594 643.652344 C 194.324219 645.171875 188.828125 649.566406 183.015625 645.050781 C 175.910156 639.53125 181.679688 630.234375 182.3125 629.261719 C 188.542969 620.160156 194.777344 611.117188 201.066406 602.175781 C 208.0625 592.203125 215.113281 582.394531 222.160156 572.703125 C 231.507812 559.871094 240.875 547.339844 250.011719 535.460938 C 250.132812 535.300781 250.25 535.132812 250.351562 534.960938 C 257.824219 525.144531 266.066406 514.601562 275.542969 502.738281 C 282.355469 494.171875 289.832031 485.003906 299.089844 473.867188 C 307.28125 463.953125 316.199219 453.484375 327.152344 440.914062 C 336.96875 429.707031 347.363281 418.152344 358.046875 406.601562 C 358.113281 406.53125 358.183594 406.464844 358.246094 406.386719 C 369.191406 394.613281 378.855469 384.445312 387.757812 375.328125 C 401.261719 361.566406 415.152344 347.914062 429.023438 334.773438 C 434.320312 329.785156 439.671875 324.804688 445.019531 319.878906 C 451.457031 313.976562 457.945312 308.125 464.496094 302.378906 C 479.613281 289.066406 494.738281 276.3125 509.449219 264.46875 C 523.460938 253.21875 536.503906 243.148438 549.328125 233.671875 C 556.199219 228.585938 563.125 223.558594 570.117188 218.625 C 576.898438 213.808594 583.742188 209.109375 590.605469 204.457031 C 595.167969 207.921875 599.605469 211.460938 603.941406 215.046875 C 591.246094 223.875 578.773438 232.84375 566.914062 241.8125 C 559.644531 247.222656 552.484375 252.800781 545.339844 258.425781 C 536.53125 265.304688 527.613281 272.527344 518.117188 280.480469 C 512.332031 285.234375 506.601562 290.089844 500.871094 295.011719 C 490.09375 304.285156 479.324219 313.859375 468.863281 323.480469 C 468.808594 323.523438 468.742188 323.535156 468.695312 323.578125 C 455.140625 335.980469 441.332031 349.140625 427.679688 362.664062 C 418.152344 372.050781 408.605469 381.738281 399.3125 391.4375 C 389.714844 401.382812 379.804688 411.96875 369.855469 422.898438 C 369.796875 422.957031 369.726562 422.976562 369.671875 423.03125 C 361.050781 432.492188 352.367188 442.25 343.863281 452.015625 C 343.710938 452.164062 343.582031 452.324219 343.453125 452.488281 C 329.898438 467.992188 315.871094 484.621094 301.757812 501.929688 C 292.992188 512.691406 285.167969 522.507812 277.84375 531.941406 C 277.796875 531.996094 277.730469 532.023438 277.6875 532.078125 C 266.058594 547.027344 256.625 559.390625 248.03125 570.9375 C 247.445312 571.476562 246.960938 572.109375 246.648438 572.855469 C 239.011719 583.035156 230.84375 594.191406 221.003906 607.910156 C 211.269531 621.582031 203.292969 632.953125 195.933594 643.652344 Z M 207.554688 646.128906 C 212.351562 639.183594 217.4375 631.910156 223.152344 623.835938 C 227.332031 639.394531 232.289062 654.308594 238.15625 668.3125 C 227.550781 661.597656 217.328125 654.160156 207.554688 646.128906 Z M 281.585938 708.65625 C 272.175781 706.371094 260.402344 689.527344 255.25 679.554688 C 245.316406 659.226562 237.335938 636.554688 231.414062 612.21875 C 237.816406 603.3125 243.53125 595.457031 248.851562 588.265625 C 249.855469 592.863281 250.921875 597.503906 252.085938 602.179688 C 265.863281 657.109375 285.585938 694.257812 290.851562 703.589844 C 289.398438 706.929688 286.683594 709.871094 281.585938 708.65625 Z M 398.890625 713.554688 C 398.328125 714.269531 397.910156 715.039062 397.476562 715.796875 C 374.972656 715.429688 352.410156 712.621094 330.324219 707.277344 C 320.152344 704.855469 310.179688 701.882812 300.585938 698.515625 C 296.367188 691.011719 278.5625 657.730469 265.195312 608.886719 C 311.773438 622.757812 357.230469 629.808594 401.058594 629.808594 C 419.894531 629.808594 438.414062 628.445312 456.609375 625.875 C 451.476562 635.152344 446.25 644.234375 440.917969 652.914062 C 407.605469 660.195312 371.617188 663.910156 333.816406 663.910156 C 332.707031 663.910156 331.707031 664.015625 330.484375 663.898438 C 327.46875 663.898438 325.023438 666.339844 325.003906 669.359375 C 324.988281 672.398438 327.425781 674.871094 330.449219 674.886719 C 331.578125 674.890625 332.699219 674.898438 333.816406 674.898438 C 368.46875 674.898438 401.679688 671.847656 432.769531 665.832031 C 422.023438 682.507812 410.675781 698.542969 398.890625 713.554688 Z M 424.609375 716.96875 C 421.835938 720.679688 419.003906 724.332031 416.207031 727.941406 C 414.769531 729.761719 412.484375 730.605469 410.394531 730.085938 C 409.570312 729.882812 408.855469 729.53125 408.226562 729.003906 C 407.027344 727.996094 406.292969 726.582031 406.128906 725.042969 C 406.066406 724.289062 406.128906 723.554688 406.417969 722.527344 C 406.566406 721.828125 406.945312 721.058594 407.492188 720.363281 C 422.085938 701.773438 436.058594 681.714844 449.007812 660.746094 C 449.015625 660.742188 449.015625 660.734375 449.019531 660.730469 C 449.027344 660.71875 449.035156 660.703125 449.046875 660.691406 C 456.761719 648.226562 464.359375 635.003906 471.640625 621.367188 C 483.042969 599.839844 493.359375 577.707031 502.3125 555.585938 C 502.371094 555.464844 502.460938 555.371094 502.507812 555.25 C 504.234375 550.9375 505.855469 546.609375 507.515625 542.28125 L 516.1875 551.519531 C 496.941406 600.695312 472.671875 647.203125 443.957031 689.761719 C 437.453125 699.414062 431.128906 708.304688 424.609375 716.96875 Z M 452.488281 696.710938 C 472.46875 682.0625 489.65625 665.832031 503.597656 648.492188 C 518.921875 642.179688 537.617188 632.296875 554.214844 622.730469 C 526.84375 658.097656 491.503906 685.441406 445.332031 707.039062 C 447.710938 703.667969 450.089844 700.261719 452.488281 696.710938 Z M 465.9375 709.132812 C 512.425781 684.742188 547.472656 653.703125 574.367188 613.492188 L 581.835938 621.445312 C 572.648438 633.058594 562.441406 644.113281 551.3125 654.292969 C 549.078125 656.339844 548.917969 659.8125 550.960938 662.054688 C 552.042969 663.242188 553.527344 663.84375 555.011719 663.84375 C 556.324219 663.84375 557.652344 663.371094 558.703125 662.410156 C 569.859375 652.203125 580.125 641.140625 589.417969 629.527344 L 601.355469 642.246094 C 562.46875 675.359375 515.535156 698.460938 465.9375 709.132812 Z M 601.574219 563.054688 C 611.691406 539.523438 619.84375 513.433594 625.769531 485.328125 C 632.105469 479.917969 638.25 474.246094 644.253906 468.425781 C 639.832031 498.480469 632.484375 526.382812 622.300781 551.519531 C 621.160156 554.332031 622.507812 557.535156 625.3125 558.675781 C 625.992188 558.953125 626.6875 559.082031 627.371094 559.082031 C 629.535156 559.082031 631.585938 557.789062 632.453125 555.65625 C 644.597656 525.671875 652.835938 491.96875 657 455.476562 C 660.054688 452.234375 663.0625 448.960938 665.996094 445.617188 C 665.882812 464.152344 662.15625 486.839844 654.75 513.433594 C 653.9375 516.355469 655.644531 519.382812 658.550781 520.199219 C 659.046875 520.339844 659.542969 520.402344 660.03125 520.402344 C 662.429688 520.402344 664.628906 518.8125 665.308594 516.386719 C 674.011719 485.125 677.84375 458.785156 676.828125 438.226562 C 679.382812 438.675781 681.941406 439.128906 684.503906 439.605469 C 686.324219 456.90625 683.867188 477.03125 677.074219 499.589844 C 676.199219 502.496094 677.84375 505.5625 680.734375 506.441406 C 681.261719 506.597656 681.796875 506.675781 682.324219 506.675781 C 684.675781 506.675781 686.847656 505.144531 687.566406 502.769531 C 694.355469 480.230469 697.09375 459.757812 695.757812 441.78125 C 699.539062 442.523438 703.316406 443.269531 707.125 444.050781 C 705.691406 456.046875 703.570312 468.101562 700.722656 479.960938 C 689.726562 525.871094 669.039062 567.308594 639.402344 603.34375 Z M 636.523438 663.679688 C 646.308594 658.421875 654.085938 650.847656 659.769531 641.058594 L 666.210938 647.917969 C 661.160156 658.335938 653.347656 665.613281 642.476562 670.03125 Z M 650.421875 678.484375 C 660.613281 673.519531 668.550781 666.109375 674.132812 656.351562 L 681.382812 664.070312 C 676.375 673.605469 668.507812 680.832031 657.484375 686.011719 Z M 671.1875 700.601562 L 665.335938 694.367188 C 675.65625 688.902344 683.640625 681.539062 689.222656 672.414062 L 695.074219 678.644531 C 690.914062 687.699219 682.894531 695.058594 671.1875 700.601562 Z M 671.1875 700.601562 " fill-opacity="1" fill-rule="nonzero"/></g><path fill="#ffffff" d="M 404.972656 0 C 365.503906 333.503906 333.503906 365.5 0 404.972656 C 0.691406 405.054688 1.375 405.136719 2.066406 405.21875 L 2.074219 405.222656 L 2.078125 405.21875 C 333.628906 444.578125 365.585938 477.136719 404.972656 809.945312 C 444.441406 476.4375 476.4375 444.441406 809.945312 404.972656 C 476.4375 365.5 444.441406 333.503906 404.972656 0 Z M 404.972656 0 " fill-opacity="1" fill-rule="nonzero"/><path fill="#000000" d="M 601.175781 403.675781 C 601.117188 403.398438 601.023438 403.148438 600.929688 402.898438 C 600.835938 402.683594 600.773438 402.433594 600.648438 402.214844 C 600.523438 402 600.335938 401.8125 600.183594 401.625 C 600.027344 401.441406 599.871094 401.222656 599.652344 401.066406 C 599.46875 400.910156 599.25 400.816406 599.03125 400.695312 C 598.78125 400.570312 598.566406 400.414062 598.285156 400.351562 C 598.222656 400.351562 598.160156 400.289062 598.097656 400.257812 L 449.535156 358.921875 L 408.175781 210.445312 C 408.175781 210.445312 408.113281 210.324219 408.082031 210.261719 C 407.988281 209.980469 407.863281 209.761719 407.707031 209.515625 C 407.582031 209.296875 407.492188 209.078125 407.335938 208.894531 C 407.179688 208.675781 406.960938 208.519531 406.742188 208.332031 C 406.558594 208.179688 406.402344 208.023438 406.183594 207.898438 C 405.964844 207.773438 405.71875 207.679688 405.46875 207.585938 C 405.21875 207.496094 405.003906 207.402344 404.753906 207.339844 C 404.691406 207.339844 404.628906 207.277344 404.535156 207.277344 C 404.347656 207.277344 404.132812 207.277344 403.945312 207.277344 C 403.757812 207.277344 403.539062 207.214844 403.355469 207.277344 C 403.292969 207.277344 403.230469 207.339844 403.136719 207.339844 C 402.886719 207.402344 402.671875 207.496094 402.453125 207.554688 C 402.203125 207.648438 401.921875 207.742188 401.707031 207.867188 C 401.519531 207.992188 401.363281 208.148438 401.175781 208.300781 C 400.960938 208.488281 400.742188 208.644531 400.585938 208.863281 C 400.429688 209.046875 400.335938 209.265625 400.214844 209.484375 C 400.089844 209.730469 399.933594 209.949219 399.839844 210.230469 C 399.839844 210.292969 399.777344 210.355469 399.746094 210.414062 L 358.382812 358.890625 L 209.824219 400.226562 C 209.824219 400.226562 209.699219 400.289062 209.636719 400.320312 C 209.386719 400.414062 209.136719 400.539062 208.890625 400.664062 C 208.671875 400.785156 208.453125 400.878906 208.269531 401.035156 C 208.082031 401.191406 207.925781 401.378906 207.738281 401.59375 C 207.582031 401.78125 207.398438 401.96875 207.273438 402.183594 C 207.148438 402.402344 207.085938 402.621094 206.992188 402.871094 C 206.898438 403.117188 206.773438 403.367188 206.742188 403.644531 C 206.742188 403.707031 206.679688 403.769531 206.679688 403.832031 C 206.679688 404.050781 206.679688 404.238281 206.679688 404.421875 C 206.679688 404.609375 206.621094 404.828125 206.679688 405.015625 C 206.679688 405.074219 206.742188 405.136719 206.742188 405.199219 C 206.804688 405.480469 206.898438 405.730469 206.992188 405.976562 C 207.085938 406.195312 207.148438 406.445312 207.273438 406.660156 C 207.398438 406.878906 207.582031 407.066406 207.738281 407.25 C 207.894531 407.4375 208.050781 407.65625 208.269531 407.8125 C 208.453125 407.964844 208.671875 408.058594 208.890625 408.183594 C 209.136719 408.308594 209.355469 408.464844 209.636719 408.527344 C 209.699219 408.527344 209.761719 408.589844 209.824219 408.621094 L 358.382812 449.957031 L 399.746094 598.429688 C 399.746094 598.429688 399.808594 598.554688 399.839844 598.617188 C 399.902344 598.835938 400.027344 598.988281 400.121094 599.207031 C 400.246094 599.457031 400.367188 599.703125 400.554688 599.921875 C 400.679688 600.078125 400.835938 600.234375 400.992188 600.359375 C 401.207031 600.542969 401.394531 600.730469 401.644531 600.886719 C 401.832031 601.011719 401.984375 601.074219 402.203125 601.164062 C 402.484375 601.289062 402.761719 601.382812 403.042969 601.445312 C 403.167969 601.445312 403.261719 601.539062 403.386719 601.570312 C 403.570312 601.570312 403.789062 601.601562 403.976562 601.601562 C 404.164062 601.601562 404.378906 601.601562 404.566406 601.570312 C 404.691406 601.570312 404.785156 601.476562 404.910156 601.445312 C 405.1875 601.382812 405.46875 601.289062 405.75 601.164062 C 405.933594 601.074219 406.121094 600.980469 406.308594 600.886719 C 406.558594 600.730469 406.773438 600.542969 406.960938 600.359375 C 407.117188 600.203125 407.242188 600.078125 407.398438 599.921875 C 407.582031 599.703125 407.707031 599.457031 407.832031 599.207031 C 407.925781 599.019531 408.019531 598.835938 408.113281 598.617188 C 408.113281 598.554688 408.175781 598.492188 408.207031 598.429688 L 449.566406 449.957031 L 598.128906 408.621094 C 598.128906 408.621094 598.253906 408.558594 598.316406 408.527344 C 598.566406 408.433594 598.8125 408.308594 599.0625 408.183594 C 599.28125 408.058594 599.5 407.964844 599.683594 407.8125 C 599.871094 407.65625 600.027344 407.46875 600.214844 407.25 C 600.367188 407.066406 600.554688 406.878906 600.679688 406.660156 C 600.804688 406.445312 600.867188 406.226562 600.960938 405.976562 C 601.054688 405.730469 601.175781 405.480469 601.207031 405.199219 C 601.207031 405.136719 601.269531 405.074219 601.269531 405.015625 C 601.269531 404.796875 601.269531 404.609375 601.269531 404.421875 C 601.269531 404.238281 601.332031 404.019531 601.269531 403.832031 C 601.269531 403.769531 601.207031 403.707031 601.207031 403.644531 Z M 360.65625 441.566406 L 242.976562 408.835938 L 393.402344 408.835938 Z M 399.589844 393.917969 L 373.21875 367.5625 L 366.84375 361.191406 L 399.589844 243.609375 L 399.589844 393.949219 Z M 408.332031 565.328125 L 408.332031 414.992188 L 434.703125 441.347656 L 441.078125 447.71875 Z M 414.519531 400.101562 L 447.265625 367.375 L 564.945312 400.101562 Z M 414.519531 400.101562 " fill-opacity="1" fill-rule="nonzero"/></svg>